<svg width="23" height="22" viewBox="0 0 23 22" fill="none" xmlns="http://www.w3.org/2000/svg">
<path d="M22.1736 11.5226L15.496 18.1237C15.427 18.1924 15.3449 18.247 15.2545 18.2842C15.1641 18.3215 15.0671 18.3406 14.9692 18.3406C14.8712 18.3406 14.7742 18.3215 14.6838 18.2842C14.5934 18.247 14.5113 18.1924 14.4424 18.1237C14.3728 18.0555 14.3176 17.9744 14.28 17.885C14.2423 17.7956 14.2229 17.6998 14.2229 17.6029C14.2229 17.5061 14.2423 17.4102 14.28 17.3209C14.3176 17.2315 14.3728 17.1504 14.4424 17.0822L19.8587 11.7353H3.8397C3.64292 11.7353 3.4542 11.658 3.31506 11.5205C3.17591 11.3829 3.09774 11.1964 3.09774 11.0018C3.09774 10.8073 3.17591 10.6207 3.31506 10.4832C3.4542 10.3456 3.64292 10.2684 3.8397 10.2684H19.8587L14.4424 4.92148C14.3027 4.78337 14.2242 4.59605 14.2242 4.40073C14.2242 4.20541 14.3027 4.01809 14.4424 3.87998C14.5821 3.74187 14.7716 3.66428 14.9692 3.66428C15.1667 3.66428 15.3562 3.74187 15.496 3.87998L22.1736 10.4811C22.2412 10.5508 22.2941 10.6331 22.3294 10.7231C22.4037 10.9017 22.4037 11.102 22.3294 11.2805C22.2941 11.3706 22.2412 11.4528 22.1736 11.5226ZM12.0013 13.2022C11.8045 13.2022 11.6158 13.2795 11.4767 13.417C11.3375 13.5546 11.2593 13.7411 11.2593 13.9356V20.5367H1.61381V1.46691H11.2593V8.06801C11.2593 8.26253 11.3375 8.44909 11.4767 8.58664C11.6158 8.72419 11.8045 8.80146 12.0013 8.80146C12.1981 8.80146 12.3868 8.72419 12.526 8.58664C12.6651 8.44909 12.7433 8.26253 12.7433 8.06801V0.733455C12.7433 0.538931 12.6651 0.352374 12.526 0.214824C12.3868 0.0772745 12.1981 0 12.0013 0H0.871847C0.675066 0 0.486344 0.0772745 0.347199 0.214824C0.208054 0.352374 0.129883 0.538931 0.129883 0.733455V21.2702C0.129883 21.4647 0.208054 21.6513 0.347199 21.7888C0.486344 21.9264 0.675066 22.0037 0.871847 22.0037H12.0013C12.1981 22.0037 12.3868 21.9264 12.526 21.7888C12.6651 21.6513 12.7433 21.4647 12.7433 21.2702V13.9356C12.7433 13.7411 12.6651 13.5546 12.526 13.417C12.3868 13.2795 12.1981 13.2022 12.0013 13.2022Z" fill="white"/>
</svg>
