<svg width="1156" height="101" viewBox="0 0 1156 101" fill="none" xmlns="http://www.w3.org/2000/svg">
<rect y="7" width="280" height="87" fill="#E8E8E8"/>
<path d="M355 50.5L279.25 94.2343V6.76572L355 50.5Z" fill="#E8E8E8"/>
<path d="M290 7H570V94H290L365 50.5L290 7Z" fill="#691B31"/>
<path d="M645 50.5L569.25 94.2343V6.76572L645 50.5Z" fill="#691B31"/>
<path d="M876 7H1156V94H876L951 50.5L876 7Z" fill="#E8E8E8"/>
<path d="M581 7H861V94H581L656 50.5L581 7Z" fill="#E8E8E8"/>
<path d="M936 50.5L860.25 94.2343V6.76572L936 50.5Z" fill="#E8E8E8"/>
<path d="M978.376 62.384C976.648 62.384 975.037 62.1067 973.544 61.552C972.072 60.976 970.792 60.1653 969.704 59.12C968.616 58.0747 967.763 56.848 967.144 55.44C966.547 54.032 966.248 52.4853 966.248 50.8C966.248 49.1147 966.547 47.568 967.144 46.16C967.763 44.752 968.616 43.5253 969.704 42.48C970.813 41.4347 972.104 40.6347 973.576 40.08C975.048 39.504 976.659 39.216 978.408 39.216C980.349 39.216 982.099 39.5573 983.656 40.24C985.235 40.9013 986.557 41.8827 987.624 43.184L984.296 46.256C983.528 45.3813 982.675 44.7307 981.736 44.304C980.797 43.856 979.773 43.632 978.664 43.632C977.619 43.632 976.659 43.8027 975.784 44.144C974.909 44.4853 974.152 44.976 973.512 45.616C972.872 46.256 972.371 47.0133 972.008 47.888C971.667 48.7627 971.496 49.7333 971.496 50.8C971.496 51.8667 971.667 52.8373 972.008 53.712C972.371 54.5867 972.872 55.344 973.512 55.984C974.152 56.624 974.909 57.1147 975.784 57.456C976.659 57.7973 977.619 57.968 978.664 57.968C979.773 57.968 980.797 57.7547 981.736 57.328C982.675 56.88 983.528 56.208 984.296 55.312L987.624 58.384C986.557 59.6853 985.235 60.6773 983.656 61.36C982.099 62.0427 980.339 62.384 978.376 62.384ZM998.371 62.256C996.536 62.256 994.904 61.872 993.475 61.104C992.067 60.336 990.947 59.2907 990.115 57.968C989.304 56.624 988.899 55.0987 988.899 53.392C988.899 51.664 989.304 50.1387 990.115 48.816C990.947 47.472 992.067 46.4267 993.475 45.68C994.904 44.912 996.536 44.528 998.371 44.528C1000.18 44.528 1001.81 44.912 1003.24 45.68C1004.66 46.4267 1005.78 47.4613 1006.6 48.784C1007.41 50.1067 1007.81 51.6427 1007.81 53.392C1007.81 55.0987 1007.41 56.624 1006.6 57.968C1005.78 59.2907 1004.66 60.336 1003.24 61.104C1001.81 61.872 1000.18 62.256 998.371 62.256ZM998.371 58.16C999.203 58.16 999.95 57.968 1000.61 57.584C1001.27 57.2 1001.8 56.656 1002.18 55.952C1002.56 55.2267 1002.76 54.3733 1002.76 53.392C1002.76 52.3893 1002.56 51.536 1002.18 50.832C1001.8 50.128 1001.27 49.584 1000.61 49.2C999.95 48.816 999.203 48.624 998.371 48.624C997.539 48.624 996.792 48.816 996.131 49.2C995.47 49.584 994.936 50.128 994.531 50.832C994.147 51.536 993.955 52.3893 993.955 53.392C993.955 54.3733 994.147 55.2267 994.531 55.952C994.936 56.656 995.47 57.2 996.131 57.584C996.792 57.968 997.539 58.16 998.371 58.16ZM1021.61 44.528C1022.98 44.528 1024.19 44.8053 1025.26 45.36C1026.35 45.8933 1027.2 46.7253 1027.82 47.856C1028.44 48.9653 1028.75 50.3947 1028.75 52.144V62H1023.76V52.912C1023.76 51.5253 1023.45 50.5013 1022.83 49.84C1022.23 49.1787 1021.38 48.848 1020.27 48.848C1019.48 48.848 1018.76 49.0187 1018.12 49.36C1017.51 49.68 1017.01 50.1813 1016.65 50.864C1016.31 51.5467 1016.14 52.4213 1016.14 53.488V62H1011.15V44.784H1015.92V49.552L1015.02 48.112C1015.64 46.96 1016.52 46.0747 1017.68 45.456C1018.83 44.8373 1020.14 44.528 1021.61 44.528ZM1041.72 62.256C1039.86 62.256 1038.21 61.8827 1036.76 61.136C1035.31 60.368 1034.17 59.312 1033.33 57.968C1032.52 56.624 1032.12 55.0987 1032.12 53.392C1032.12 51.664 1032.52 50.1387 1033.33 48.816C1034.17 47.472 1035.31 46.4267 1036.76 45.68C1038.21 44.912 1039.86 44.528 1041.72 44.528C1043.53 44.528 1045.11 44.912 1046.45 45.68C1047.8 46.4267 1048.79 47.504 1049.43 48.912L1045.56 50.992C1045.11 50.1813 1044.54 49.584 1043.86 49.2C1043.2 48.816 1042.48 48.624 1041.69 48.624C1040.83 48.624 1040.06 48.816 1039.38 49.2C1038.7 49.584 1038.16 50.128 1037.75 50.832C1037.37 51.536 1037.17 52.3893 1037.17 53.392C1037.17 54.3947 1037.37 55.248 1037.75 55.952C1038.16 56.656 1038.7 57.2 1039.38 57.584C1040.06 57.968 1040.83 58.16 1041.69 58.16C1042.48 58.16 1043.2 57.9787 1043.86 57.616C1044.54 57.232 1045.11 56.624 1045.56 55.792L1049.43 57.904C1048.79 59.2907 1047.8 60.368 1046.45 61.136C1045.11 61.8827 1043.53 62.256 1041.72 62.256ZM1052.21 62V38.256H1057.2V62H1052.21ZM1069.1 62.256C1067.67 62.256 1066.39 61.9787 1065.26 61.424C1064.15 60.8693 1063.29 60.0267 1062.67 58.896C1062.05 57.744 1061.74 56.2827 1061.74 54.512V44.784H1066.73V53.776C1066.73 55.2053 1067.03 56.2613 1067.63 56.944C1068.25 57.6053 1069.11 57.936 1070.22 57.936C1070.99 57.936 1071.67 57.776 1072.27 57.456C1072.86 57.1147 1073.33 56.6027 1073.68 55.92C1074.02 55.216 1074.19 54.3413 1074.19 53.296V44.784H1079.18V62H1074.44V57.264L1075.31 58.64C1074.73 59.8347 1073.88 60.7413 1072.75 61.36C1071.64 61.9573 1070.42 62.256 1069.1 62.256ZM1083.8 62V44.784H1088.8V62H1083.8ZM1086.3 42.384C1085.38 42.384 1084.64 42.1173 1084.06 41.584C1083.48 41.0507 1083.2 40.3893 1083.2 39.6C1083.2 38.8107 1083.48 38.1493 1084.06 37.616C1084.64 37.0827 1085.38 36.816 1086.3 36.816C1087.22 36.816 1087.96 37.072 1088.54 37.584C1089.12 38.0747 1089.4 38.7147 1089.4 39.504C1089.4 40.336 1089.12 41.0293 1088.54 41.584C1087.99 42.1173 1087.24 42.384 1086.3 42.384ZM1100.82 62.256C1099.2 62.256 1097.74 61.8933 1096.44 61.168C1095.14 60.4213 1094.1 59.3867 1093.33 58.064C1092.59 56.7413 1092.21 55.184 1092.21 53.392C1092.21 51.5787 1092.59 50.0107 1093.33 48.688C1094.1 47.3653 1095.14 46.3413 1096.44 45.616C1097.74 44.8907 1099.2 44.528 1100.82 44.528C1102.27 44.528 1103.54 44.848 1104.63 45.488C1105.72 46.128 1106.56 47.0987 1107.16 48.4C1107.75 49.7013 1108.05 51.3653 1108.05 53.392C1108.05 55.3973 1107.77 57.0613 1107.19 58.384C1106.61 59.6853 1105.78 60.656 1104.69 61.296C1103.63 61.936 1102.34 62.256 1100.82 62.256ZM1101.69 58.16C1102.5 58.16 1103.23 57.968 1103.89 57.584C1104.55 57.2 1105.08 56.656 1105.46 55.952C1105.87 55.2267 1106.07 54.3733 1106.07 53.392C1106.07 52.3893 1105.87 51.536 1105.46 50.832C1105.08 50.128 1104.55 49.584 1103.89 49.2C1103.23 48.816 1102.5 48.624 1101.69 48.624C1100.85 48.624 1100.11 48.816 1099.45 49.2C1098.78 49.584 1098.25 50.128 1097.85 50.832C1097.46 51.536 1097.27 52.3893 1097.27 53.392C1097.27 54.3733 1097.46 55.2267 1097.85 55.952C1098.25 56.656 1098.78 57.2 1099.45 57.584C1100.11 57.968 1100.85 58.16 1101.69 58.16ZM1106.2 62V58.48L1106.29 53.36L1105.97 48.272V38.256H1110.97V62H1106.2ZM1123.78 62.256C1121.94 62.256 1120.31 61.872 1118.88 61.104C1117.47 60.336 1116.35 59.2907 1115.52 57.968C1114.71 56.624 1114.31 55.0987 1114.31 53.392C1114.31 51.664 1114.71 50.1387 1115.52 48.816C1116.35 47.472 1117.47 46.4267 1118.88 45.68C1120.31 44.912 1121.94 44.528 1123.78 44.528C1125.59 44.528 1127.21 44.912 1128.64 45.68C1130.07 46.4267 1131.19 47.4613 1132 48.784C1132.81 50.1067 1133.22 51.6427 1133.22 53.392C1133.22 55.0987 1132.81 56.624 1132 57.968C1131.19 59.2907 1130.07 60.336 1128.64 61.104C1127.21 61.872 1125.59 62.256 1123.78 62.256ZM1123.78 58.16C1124.61 58.16 1125.36 57.968 1126.02 57.584C1126.68 57.2 1127.2 56.656 1127.59 55.952C1127.97 55.2267 1128.16 54.3733 1128.16 53.392C1128.16 52.3893 1127.97 51.536 1127.59 50.832C1127.2 50.128 1126.68 49.584 1126.02 49.2C1125.36 48.816 1124.61 48.624 1123.78 48.624C1122.95 48.624 1122.2 48.816 1121.54 49.2C1120.88 49.584 1120.34 50.128 1119.94 50.832C1119.55 51.536 1119.36 52.3893 1119.36 53.392C1119.36 54.3733 1119.55 55.2267 1119.94 55.952C1120.34 56.656 1120.88 57.2 1121.54 57.584C1122.2 57.968 1122.95 58.16 1123.78 58.16Z" fill="#727272"/>
<path d="M93.0154 43V20.6H102.711C104.717 20.6 106.445 20.9307 107.895 21.592C109.346 22.232 110.466 23.16 111.255 24.376C112.045 25.592 112.439 27.0427 112.439 28.728C112.439 30.392 112.045 31.832 111.255 33.048C110.466 34.264 109.346 35.2027 107.895 35.864C106.445 36.504 104.717 36.824 102.711 36.824H95.8954L98.1994 34.488V43H93.0154ZM98.1994 35.064L95.8954 32.6H102.423C104.023 32.6 105.218 32.2587 106.007 31.576C106.797 30.8933 107.191 29.944 107.191 28.728C107.191 27.4907 106.797 26.5307 106.007 25.848C105.218 25.1653 104.023 24.824 102.423 24.824H95.8954L98.1994 22.36V35.064ZM126.192 43V39.64L125.872 38.904V32.888C125.872 31.8213 125.541 30.9893 124.88 30.392C124.24 29.7947 123.248 29.496 121.904 29.496C120.987 29.496 120.08 29.6453 119.184 29.944C118.309 30.2213 117.563 30.6053 116.944 31.096L115.152 27.608C116.091 26.9467 117.221 26.4347 118.544 26.072C119.867 25.7093 121.211 25.528 122.576 25.528C125.2 25.528 127.237 26.1467 128.688 27.384C130.139 28.6213 130.864 30.552 130.864 33.176V43H126.192ZM120.944 43.256C119.6 43.256 118.448 43.032 117.488 42.584C116.528 42.1147 115.792 41.4853 115.28 40.696C114.768 39.9067 114.512 39.0213 114.512 38.04C114.512 37.016 114.757 36.12 115.248 35.352C115.76 34.584 116.56 33.9867 117.648 33.56C118.736 33.112 120.155 32.888 121.904 32.888H126.48V35.8H122.448C121.275 35.8 120.464 35.992 120.016 36.376C119.589 36.76 119.376 37.24 119.376 37.816C119.376 38.456 119.621 38.968 120.112 39.352C120.624 39.7147 121.317 39.896 122.192 39.896C123.024 39.896 123.771 39.704 124.432 39.32C125.093 38.9147 125.573 38.328 125.872 37.56L126.64 39.864C126.277 40.9733 125.616 41.816 124.656 42.392C123.696 42.968 122.459 43.256 120.944 43.256ZM141.174 43.256C139.702 43.256 138.283 43.0853 136.918 42.744C135.574 42.3813 134.507 41.9333 133.718 41.4L135.382 37.816C136.171 38.3067 137.099 38.712 138.166 39.032C139.254 39.3307 140.321 39.48 141.366 39.48C142.518 39.48 143.329 39.3413 143.798 39.064C144.289 38.7867 144.534 38.4027 144.534 37.912C144.534 37.5067 144.342 37.208 143.958 37.016C143.595 36.8027 143.105 36.6427 142.486 36.536C141.867 36.4293 141.185 36.3227 140.438 36.216C139.713 36.1093 138.977 35.9707 138.23 35.8C137.483 35.608 136.801 35.3307 136.182 34.968C135.563 34.6053 135.062 34.1147 134.678 33.496C134.315 32.8773 134.134 32.0773 134.134 31.096C134.134 30.008 134.443 29.048 135.062 28.216C135.702 27.384 136.619 26.7333 137.814 26.264C139.009 25.7733 140.438 25.528 142.102 25.528C143.275 25.528 144.47 25.656 145.686 25.912C146.902 26.168 147.915 26.5413 148.726 27.032L147.062 30.584C146.23 30.0933 145.387 29.7627 144.534 29.592C143.702 29.4 142.891 29.304 142.102 29.304C140.993 29.304 140.182 29.4533 139.67 29.752C139.158 30.0507 138.902 30.4347 138.902 30.904C138.902 31.3307 139.083 31.6507 139.446 31.864C139.83 32.0773 140.331 32.248 140.95 32.376C141.569 32.504 142.241 32.6213 142.966 32.728C143.713 32.8133 144.459 32.952 145.206 33.144C145.953 33.336 146.625 33.6133 147.222 33.976C147.841 34.3173 148.342 34.7973 148.726 35.416C149.11 36.0133 149.302 36.8027 149.302 37.784C149.302 38.8507 148.982 39.8 148.342 40.632C147.702 41.4427 146.774 42.0827 145.558 42.552C144.363 43.0213 142.902 43.256 141.174 43.256ZM160.574 43.256C158.739 43.256 157.107 42.872 155.678 42.104C154.27 41.336 153.15 40.2907 152.318 38.968C151.507 37.624 151.102 36.0987 151.102 34.392C151.102 32.664 151.507 31.1387 152.318 29.816C153.15 28.472 154.27 27.4267 155.678 26.68C157.107 25.912 158.739 25.528 160.574 25.528C162.387 25.528 164.009 25.912 165.438 26.68C166.867 27.4267 167.987 28.4613 168.798 29.784C169.609 31.1067 170.014 32.6427 170.014 34.392C170.014 36.0987 169.609 37.624 168.798 38.968C167.987 40.2907 166.867 41.336 165.438 42.104C164.009 42.872 162.387 43.256 160.574 43.256ZM160.574 39.16C161.406 39.16 162.153 38.968 162.814 38.584C163.475 38.2 163.998 37.656 164.382 36.952C164.766 36.2267 164.958 35.3733 164.958 34.392C164.958 33.3893 164.766 32.536 164.382 31.832C163.998 31.128 163.475 30.584 162.814 30.2C162.153 29.816 161.406 29.624 160.574 29.624C159.742 29.624 158.995 29.816 158.334 30.2C157.673 30.584 157.139 31.128 156.734 31.832C156.35 32.536 156.158 33.3893 156.158 34.392C156.158 35.3733 156.35 36.2267 156.734 36.952C157.139 37.656 157.673 38.2 158.334 38.584C158.995 38.968 159.742 39.16 160.574 39.16ZM184.813 43V22.52L187.053 24.76H180.333V20.6H189.997V43H184.813Z" fill="#727272"/>
<path d="M48.9881 65V53.8H50.1721V65H48.9881ZM57.8642 56.52C58.5469 56.52 59.1442 56.6533 59.6562 56.92C60.1789 57.176 60.5842 57.5707 60.8722 58.104C61.1709 58.6373 61.3202 59.3093 61.3202 60.12V65H60.1842V60.232C60.1842 59.3467 59.9602 58.68 59.5122 58.232C59.0749 57.7733 58.4562 57.544 57.6562 57.544C57.0589 57.544 56.5362 57.6667 56.0882 57.912C55.6509 58.1467 55.3095 58.4933 55.0642 58.952C54.8295 59.4 54.7122 59.944 54.7122 60.584V65H53.5762V56.6H54.6642V58.904L54.4882 58.472C54.7549 57.864 55.1815 57.3893 55.7682 57.048C56.3549 56.696 57.0535 56.52 57.8642 56.52ZM67.9727 68.184C67.2047 68.184 66.4687 68.072 65.7647 67.848C65.0607 67.624 64.49 67.304 64.0527 66.888L64.6287 66.024C65.0234 66.376 65.5087 66.6533 66.0847 66.856C66.6714 67.0693 67.29 67.176 67.9407 67.176C69.0074 67.176 69.7914 66.9253 70.2927 66.424C70.794 65.9333 71.0447 65.1653 71.0447 64.12V62.024L71.2047 60.584L71.0927 59.144V56.6H72.1807V63.976C72.1807 65.4267 71.8234 66.488 71.1087 67.16C70.4047 67.8427 69.3594 68.184 67.9727 68.184ZM67.7647 64.68C66.9647 64.68 66.2447 64.5093 65.6047 64.168C64.9647 63.816 64.458 63.3307 64.0847 62.712C63.722 62.0933 63.5407 61.384 63.5407 60.584C63.5407 59.784 63.722 59.08 64.0847 58.472C64.458 57.8533 64.9647 57.3733 65.6047 57.032C66.2447 56.6907 66.9647 56.52 67.7647 56.52C68.5114 56.52 69.1834 56.6747 69.7807 56.984C70.378 57.2933 70.8527 57.752 71.2047 58.36C71.5567 58.968 71.7327 59.7093 71.7327 60.584C71.7327 61.4587 71.5567 62.2 71.2047 62.808C70.8527 63.416 70.378 63.88 69.7807 64.2C69.1834 64.52 68.5114 64.68 67.7647 64.68ZM67.8767 63.672C68.4954 63.672 69.0447 63.544 69.5247 63.288C70.0047 63.0213 70.3834 62.6587 70.6607 62.2C70.938 61.7307 71.0767 61.192 71.0767 60.584C71.0767 59.976 70.938 59.4427 70.6607 58.984C70.3834 58.5253 70.0047 58.168 69.5247 57.912C69.0447 57.6453 68.4954 57.512 67.8767 57.512C67.2687 57.512 66.7194 57.6453 66.2287 57.912C65.7487 58.168 65.37 58.5253 65.0927 58.984C64.826 59.4427 64.6927 59.976 64.6927 60.584C64.6927 61.192 64.826 61.7307 65.0927 62.2C65.37 62.6587 65.7487 63.0213 66.2287 63.288C66.7194 63.544 67.2687 63.672 67.8767 63.672ZM75.3418 65V56.6H76.4298V58.888L76.3178 58.488C76.5525 57.848 76.9471 57.3627 77.5018 57.032C78.0565 56.6907 78.7445 56.52 79.5658 56.52V57.624C79.5231 57.624 79.4805 57.624 79.4378 57.624C79.3951 57.6133 79.3525 57.608 79.3098 57.608C78.4245 57.608 77.7311 57.88 77.2298 58.424C76.7285 58.9573 76.4778 59.72 76.4778 60.712V65H75.3418ZM85.1286 65.08C84.2539 65.08 83.4859 64.8987 82.8246 64.536C82.1632 64.1627 81.6459 63.656 81.2726 63.016C80.8992 62.3653 80.7126 61.624 80.7126 60.792C80.7126 59.96 80.8886 59.224 81.2406 58.584C81.6032 57.944 82.0939 57.4427 82.7126 57.08C83.3419 56.7067 84.0459 56.52 84.8246 56.52C85.6139 56.52 86.3126 56.7013 86.9206 57.064C87.5392 57.416 88.0246 57.9173 88.3766 58.568C88.7286 59.208 88.9046 59.9493 88.9046 60.792C88.9046 60.8453 88.8992 60.904 88.8886 60.968C88.8886 61.0213 88.8886 61.08 88.8886 61.144H81.5766V60.296H88.2806L87.8326 60.632C87.8326 60.024 87.6992 59.4853 87.4326 59.016C87.1766 58.536 86.8246 58.1627 86.3766 57.896C85.9286 57.6293 85.4112 57.496 84.8246 57.496C84.2486 57.496 83.7312 57.6293 83.2726 57.896C82.8139 58.1627 82.4566 58.536 82.2006 59.016C81.9446 59.496 81.8166 60.0453 81.8166 60.664V60.84C81.8166 61.48 81.9552 62.0453 82.2326 62.536C82.5206 63.016 82.9152 63.3947 83.4166 63.672C83.9286 63.9387 84.5099 64.072 85.1606 64.072C85.6726 64.072 86.1472 63.9813 86.5846 63.8C87.0326 63.6187 87.4166 63.3413 87.7366 62.968L88.3766 63.704C88.0032 64.152 87.5339 64.4933 86.9686 64.728C86.4139 64.9627 85.8006 65.08 85.1286 65.08ZM93.4728 65.08C92.7795 65.08 92.1235 64.984 91.5048 64.792C90.8861 64.5893 90.4008 64.3387 90.0488 64.04L90.5608 63.144C90.9021 63.4 91.3395 63.624 91.8728 63.816C92.4061 63.9973 92.9661 64.088 93.5528 64.088C94.3528 64.088 94.9288 63.9653 95.2808 63.72C95.6328 63.464 95.8088 63.128 95.8088 62.712C95.8088 62.4027 95.7075 62.1627 95.5048 61.992C95.3128 61.8107 95.0568 61.6773 94.7368 61.592C94.4168 61.496 94.0595 61.416 93.6648 61.352C93.2701 61.288 92.8755 61.2133 92.4808 61.128C92.0968 61.0427 91.7448 60.92 91.4248 60.76C91.1048 60.5893 90.8435 60.36 90.6408 60.072C90.4488 59.784 90.3528 59.4 90.3528 58.92C90.3528 58.4613 90.4808 58.0507 90.7368 57.688C90.9928 57.3253 91.3661 57.0427 91.8568 56.84C92.3581 56.6267 92.9661 56.52 93.6808 56.52C94.2248 56.52 94.7688 56.5947 95.3128 56.744C95.8568 56.8827 96.3048 57.0693 96.6568 57.304L96.1608 58.216C95.7875 57.96 95.3875 57.7787 94.9608 57.672C94.5341 57.5547 94.1075 57.496 93.6808 57.496C92.9235 57.496 92.3635 57.6293 92.0008 57.896C91.6488 58.152 91.4728 58.4827 91.4728 58.888C91.4728 59.208 91.5688 59.4587 91.7608 59.64C91.9635 59.8213 92.2248 59.9653 92.5448 60.072C92.8755 60.168 93.2328 60.248 93.6168 60.312C94.0115 60.376 94.4008 60.456 94.7848 60.552C95.1795 60.6373 95.5368 60.76 95.8568 60.92C96.1875 61.0693 96.4488 61.288 96.6408 61.576C96.8435 61.8533 96.9448 62.2213 96.9448 62.68C96.9448 63.1707 96.8061 63.5973 96.5288 63.96C96.2621 64.312 95.8675 64.5893 95.3448 64.792C94.8328 64.984 94.2088 65.08 93.4728 65.08ZM104.293 65V63.144L104.245 62.84V59.736C104.245 59.0213 104.043 58.472 103.637 58.088C103.243 57.704 102.651 57.512 101.861 57.512C101.317 57.512 100.8 57.6027 100.309 57.784C99.8186 57.9653 99.4026 58.2053 99.0613 58.504L98.5493 57.656C98.976 57.2933 99.488 57.016 100.085 56.824C100.683 56.6213 101.312 56.52 101.973 56.52C103.061 56.52 103.899 56.792 104.485 57.336C105.083 57.8693 105.381 58.6853 105.381 59.784V65H104.293ZM101.397 65.08C100.768 65.08 100.219 64.9787 99.7493 64.776C99.2906 64.5627 98.9386 64.2747 98.6933 63.912C98.448 63.5387 98.3253 63.112 98.3253 62.632C98.3253 62.1947 98.4266 61.8 98.6293 61.448C98.8426 61.0853 99.184 60.7973 99.6533 60.584C100.133 60.36 100.773 60.248 101.573 60.248H104.469V61.096H101.605C100.795 61.096 100.229 61.24 99.9093 61.528C99.6 61.816 99.4453 62.1733 99.4453 62.6C99.4453 63.08 99.632 63.464 100.005 63.752C100.379 64.04 100.901 64.184 101.573 64.184C102.213 64.184 102.763 64.04 103.221 63.752C103.691 63.4533 104.032 63.0267 104.245 62.472L104.501 63.256C104.288 63.8107 103.915 64.2533 103.381 64.584C102.859 64.9147 102.197 65.08 101.397 65.08ZM108.467 65V56.6H109.555V58.888L109.443 58.488C109.677 57.848 110.072 57.3627 110.627 57.032C111.181 56.6907 111.869 56.52 112.691 56.52V57.624C112.648 57.624 112.605 57.624 112.563 57.624C112.52 57.6133 112.477 57.608 112.435 57.608C111.549 57.608 110.856 57.88 110.355 58.424C109.853 58.9573 109.603 59.72 109.603 60.712V65H108.467ZM119.316 65V53.8H123.876C125.071 53.8 126.116 54.04 127.012 54.52C127.919 54.9893 128.623 55.6453 129.124 56.488C129.626 57.3307 129.876 58.3013 129.876 59.4C129.876 60.4987 129.626 61.4693 129.124 62.312C128.623 63.1547 127.919 63.816 127.012 64.296C126.116 64.7653 125.071 65 123.876 65H119.316ZM120.5 63.976H123.812C124.804 63.976 125.663 63.784 126.388 63.4C127.124 63.0053 127.695 62.4667 128.1 61.784C128.506 61.0907 128.708 60.296 128.708 59.4C128.708 58.4933 128.506 57.6987 128.1 57.016C127.695 56.3333 127.124 55.8 126.388 55.416C125.663 55.0213 124.804 54.824 123.812 54.824H120.5V63.976ZM135.719 65.08C134.908 65.08 134.178 64.8987 133.527 64.536C132.887 64.1627 132.38 63.656 132.007 63.016C131.634 62.3653 131.447 61.624 131.447 60.792C131.447 59.9493 131.634 59.208 132.007 58.568C132.38 57.928 132.887 57.4267 133.527 57.064C134.167 56.7013 134.898 56.52 135.719 56.52C136.551 56.52 137.287 56.7013 137.927 57.064C138.578 57.4267 139.084 57.928 139.447 58.568C139.82 59.208 140.007 59.9493 140.007 60.792C140.007 61.624 139.82 62.3653 139.447 63.016C139.084 63.656 138.578 64.1627 137.927 64.536C137.276 64.8987 136.54 65.08 135.719 65.08ZM135.719 64.072C136.327 64.072 136.866 63.9387 137.335 63.672C137.804 63.3947 138.172 63.0107 138.439 62.52C138.716 62.0187 138.855 61.4427 138.855 60.792C138.855 60.1307 138.716 59.5547 138.439 59.064C138.172 58.5733 137.804 58.1947 137.335 57.928C136.866 57.6507 136.332 57.512 135.735 57.512C135.138 57.512 134.604 57.6507 134.135 57.928C133.666 58.1947 133.292 58.5733 133.015 59.064C132.738 59.5547 132.599 60.1307 132.599 60.792C132.599 61.4427 132.738 62.0187 133.015 62.52C133.292 63.0107 133.666 63.3947 134.135 63.672C134.604 63.9387 135.132 64.072 135.719 64.072ZM145.814 65.08C144.982 65.08 144.236 64.8987 143.574 64.536C142.924 64.1627 142.412 63.656 142.038 63.016C141.665 62.3653 141.478 61.624 141.478 60.792C141.478 59.9493 141.665 59.208 142.038 58.568C142.412 57.928 142.924 57.4267 143.574 57.064C144.236 56.7013 144.982 56.52 145.814 56.52C146.529 56.52 147.174 56.6587 147.75 56.936C148.326 57.2133 148.78 57.6293 149.11 58.184L148.262 58.76C147.974 58.3333 147.617 58.0187 147.19 57.816C146.764 57.6133 146.3 57.512 145.798 57.512C145.201 57.512 144.662 57.6507 144.182 57.928C143.702 58.1947 143.324 58.5733 143.046 59.064C142.769 59.5547 142.63 60.1307 142.63 60.792C142.63 61.4533 142.769 62.0293 143.046 62.52C143.324 63.0107 143.702 63.3947 144.182 63.672C144.662 63.9387 145.201 64.072 145.798 64.072C146.3 64.072 146.764 63.9707 147.19 63.768C147.617 63.5653 147.974 63.256 148.262 62.84L149.11 63.416C148.78 63.96 148.326 64.376 147.75 64.664C147.174 64.9413 146.529 65.08 145.814 65.08ZM154.814 65.08C154.099 65.08 153.475 64.9467 152.942 64.68C152.408 64.4133 151.992 64.0133 151.694 63.48C151.406 62.9467 151.262 62.28 151.262 61.48V56.6H152.398V61.352C152.398 62.248 152.616 62.9253 153.054 63.384C153.502 63.832 154.126 64.056 154.926 64.056C155.512 64.056 156.019 63.9387 156.446 63.704C156.883 63.4587 157.214 63.1067 157.438 62.648C157.672 62.1893 157.79 61.64 157.79 61V56.6H158.926V65H157.838V62.696L158.014 63.112C157.747 63.7307 157.331 64.216 156.766 64.568C156.211 64.9093 155.56 65.08 154.814 65.08ZM172.588 56.52C173.27 56.52 173.862 56.6533 174.364 56.92C174.876 57.176 175.27 57.5707 175.548 58.104C175.836 58.6373 175.98 59.3093 175.98 60.12V65H174.844V60.232C174.844 59.3467 174.63 58.68 174.204 58.232C173.788 57.7733 173.196 57.544 172.428 57.544C171.852 57.544 171.35 57.6667 170.924 57.912C170.508 58.1467 170.182 58.4933 169.948 58.952C169.724 59.4 169.612 59.944 169.612 60.584V65H168.476V60.232C168.476 59.3467 168.262 58.68 167.836 58.232C167.409 57.7733 166.812 57.544 166.044 57.544C165.478 57.544 164.982 57.6667 164.556 57.912C164.129 58.1467 163.798 58.4933 163.564 58.952C163.34 59.4 163.228 59.944 163.228 60.584V65H162.092V56.6H163.18V58.872L163.004 58.472C163.26 57.864 163.67 57.3893 164.236 57.048C164.812 56.696 165.489 56.52 166.268 56.52C167.089 56.52 167.788 56.728 168.364 57.144C168.94 57.5493 169.313 58.1627 169.484 58.984L169.036 58.808C169.281 58.1253 169.713 57.576 170.332 57.16C170.961 56.7333 171.713 56.52 172.588 56.52ZM182.629 65.08C181.754 65.08 180.986 64.8987 180.325 64.536C179.663 64.1627 179.146 63.656 178.773 63.016C178.399 62.3653 178.213 61.624 178.213 60.792C178.213 59.96 178.389 59.224 178.741 58.584C179.103 57.944 179.594 57.4427 180.213 57.08C180.842 56.7067 181.546 56.52 182.325 56.52C183.114 56.52 183.813 56.7013 184.421 57.064C185.039 57.416 185.525 57.9173 185.877 58.568C186.229 59.208 186.405 59.9493 186.405 60.792C186.405 60.8453 186.399 60.904 186.389 60.968C186.389 61.0213 186.389 61.08 186.389 61.144H179.077V60.296H185.781L185.333 60.632C185.333 60.024 185.199 59.4853 184.933 59.016C184.677 58.536 184.325 58.1627 183.877 57.896C183.429 57.6293 182.911 57.496 182.325 57.496C181.749 57.496 181.231 57.6293 180.773 57.896C180.314 58.1627 179.957 58.536 179.701 59.016C179.445 59.496 179.317 60.0453 179.317 60.664V60.84C179.317 61.48 179.455 62.0453 179.733 62.536C180.021 63.016 180.415 63.3947 180.917 63.672C181.429 63.9387 182.01 64.072 182.661 64.072C183.173 64.072 183.647 63.9813 184.085 63.8C184.533 63.6187 184.917 63.3413 185.237 62.968L185.877 63.704C185.503 64.152 185.034 64.4933 184.469 64.728C183.914 64.9627 183.301 65.08 182.629 65.08ZM193.005 56.52C193.687 56.52 194.285 56.6533 194.797 56.92C195.319 57.176 195.725 57.5707 196.013 58.104C196.311 58.6373 196.461 59.3093 196.461 60.12V65H195.325V60.232C195.325 59.3467 195.101 58.68 194.653 58.232C194.215 57.7733 193.597 57.544 192.797 57.544C192.199 57.544 191.677 57.6667 191.229 57.912C190.791 58.1467 190.45 58.4933 190.205 58.952C189.97 59.4 189.853 59.944 189.853 60.584V65H188.717V56.6H189.805V58.904L189.629 58.472C189.895 57.864 190.322 57.3893 190.909 57.048C191.495 56.696 192.194 56.52 193.005 56.52ZM202.185 65.08C201.396 65.08 200.788 64.8667 200.361 64.44C199.935 64.0133 199.721 63.4107 199.721 62.632V54.744H200.857V62.568C200.857 63.0587 200.98 63.4373 201.225 63.704C201.481 63.9707 201.844 64.104 202.313 64.104C202.815 64.104 203.231 63.96 203.561 63.672L203.961 64.488C203.737 64.6907 203.465 64.84 203.145 64.936C202.836 65.032 202.516 65.08 202.185 65.08ZM198.217 57.544V56.6H203.417V57.544H198.217ZM209.156 65.08C208.346 65.08 207.615 64.8987 206.964 64.536C206.324 64.1627 205.818 63.656 205.444 63.016C205.071 62.3653 204.884 61.624 204.884 60.792C204.884 59.9493 205.071 59.208 205.444 58.568C205.818 57.928 206.324 57.4267 206.964 57.064C207.604 56.7013 208.335 56.52 209.156 56.52C209.988 56.52 210.724 56.7013 211.364 57.064C212.015 57.4267 212.522 57.928 212.884 58.568C213.258 59.208 213.444 59.9493 213.444 60.792C213.444 61.624 213.258 62.3653 212.884 63.016C212.522 63.656 212.015 64.1627 211.364 64.536C210.714 64.8987 209.978 65.08 209.156 65.08ZM209.156 64.072C209.764 64.072 210.303 63.9387 210.772 63.672C211.242 63.3947 211.61 63.0107 211.876 62.52C212.154 62.0187 212.292 61.4427 212.292 60.792C212.292 60.1307 212.154 59.5547 211.876 59.064C211.61 58.5733 211.242 58.1947 210.772 57.928C210.303 57.6507 209.77 57.512 209.172 57.512C208.575 57.512 208.042 57.6507 207.572 57.928C207.103 58.1947 206.73 58.5733 206.452 59.064C206.175 59.5547 206.036 60.1307 206.036 60.792C206.036 61.4427 206.175 62.0187 206.452 62.52C206.73 63.0107 207.103 63.3947 207.572 63.672C208.042 63.9387 208.57 64.072 209.156 64.072ZM218.02 65.08C217.326 65.08 216.67 64.984 216.052 64.792C215.433 64.5893 214.948 64.3387 214.596 64.04L215.108 63.144C215.449 63.4 215.886 63.624 216.42 63.816C216.953 63.9973 217.513 64.088 218.1 64.088C218.9 64.088 219.476 63.9653 219.828 63.72C220.18 63.464 220.356 63.128 220.356 62.712C220.356 62.4027 220.254 62.1627 220.052 61.992C219.86 61.8107 219.604 61.6773 219.284 61.592C218.964 61.496 218.606 61.416 218.212 61.352C217.817 61.288 217.422 61.2133 217.028 61.128C216.644 61.0427 216.292 60.92 215.972 60.76C215.652 60.5893 215.39 60.36 215.188 60.072C214.996 59.784 214.9 59.4 214.9 58.92C214.9 58.4613 215.028 58.0507 215.284 57.688C215.54 57.3253 215.913 57.0427 216.404 56.84C216.905 56.6267 217.513 56.52 218.228 56.52C218.772 56.52 219.316 56.5947 219.86 56.744C220.404 56.8827 220.852 57.0693 221.204 57.304L220.708 58.216C220.334 57.96 219.934 57.7787 219.508 57.672C219.081 57.5547 218.654 57.496 218.228 57.496C217.47 57.496 216.91 57.6293 216.548 57.896C216.196 58.152 216.02 58.4827 216.02 58.888C216.02 59.208 216.116 59.4587 216.308 59.64C216.51 59.8213 216.772 59.9653 217.092 60.072C217.422 60.168 217.78 60.248 218.164 60.312C218.558 60.376 218.948 60.456 219.332 60.552C219.726 60.6373 220.084 60.76 220.404 60.92C220.734 61.0693 220.996 61.288 221.188 61.576C221.39 61.8533 221.492 62.2213 221.492 62.68C221.492 63.1707 221.353 63.5973 221.076 63.96C220.809 64.312 220.414 64.5893 219.892 64.792C219.38 64.984 218.756 65.08 218.02 65.08ZM231.332 65.08C230.457 65.08 229.689 64.8987 229.028 64.536C228.366 64.1627 227.849 63.656 227.476 63.016C227.102 62.3653 226.916 61.624 226.916 60.792C226.916 59.96 227.092 59.224 227.444 58.584C227.806 57.944 228.297 57.4427 228.916 57.08C229.545 56.7067 230.249 56.52 231.028 56.52C231.817 56.52 232.516 56.7013 233.124 57.064C233.742 57.416 234.228 57.9173 234.58 58.568C234.932 59.208 235.108 59.9493 235.108 60.792C235.108 60.8453 235.102 60.904 235.092 60.968C235.092 61.0213 235.092 61.08 235.092 61.144H227.78V60.296H234.484L234.036 60.632C234.036 60.024 233.902 59.4853 233.636 59.016C233.38 58.536 233.028 58.1627 232.58 57.896C232.132 57.6293 231.614 57.496 231.028 57.496C230.452 57.496 229.934 57.6293 229.476 57.896C229.017 58.1627 228.66 58.536 228.404 59.016C228.148 59.496 228.02 60.0453 228.02 60.664V60.84C228.02 61.48 228.158 62.0453 228.436 62.536C228.724 63.016 229.118 63.3947 229.62 63.672C230.132 63.9387 230.713 64.072 231.364 64.072C231.876 64.072 232.35 63.9813 232.788 63.8C233.236 63.6187 233.62 63.3413 233.94 62.968L234.58 63.704C234.206 64.152 233.737 64.4933 233.172 64.728C232.617 64.9627 232.004 65.08 231.332 65.08ZM94.4803 81V69.8H95.6643V81H94.4803ZM103.356 72.52C104.039 72.52 104.636 72.6533 105.148 72.92C105.671 73.176 106.076 73.5707 106.364 74.104C106.663 74.6373 106.812 75.3093 106.812 76.12V81H105.676V76.232C105.676 75.3467 105.452 74.68 105.004 74.232C104.567 73.7733 103.948 73.544 103.148 73.544C102.551 73.544 102.028 73.6667 101.58 73.912C101.143 74.1467 100.802 74.4933 100.556 74.952C100.322 75.4 100.204 75.944 100.204 76.584V81H99.0684V72.6H100.156V74.904L99.9804 74.472C100.247 73.864 100.674 73.3893 101.26 73.048C101.847 72.696 102.546 72.52 103.356 72.52ZM110.073 81V71.544C110.073 70.7973 110.292 70.1947 110.729 69.736C111.166 69.2773 111.796 69.048 112.617 69.048C112.937 69.048 113.246 69.0907 113.545 69.176C113.844 69.2613 114.094 69.3947 114.297 69.576L113.913 70.424C113.753 70.2853 113.566 70.184 113.353 70.12C113.14 70.0453 112.91 70.008 112.665 70.008C112.185 70.008 111.817 70.1413 111.561 70.408C111.305 70.6747 111.177 71.0693 111.177 71.592V72.872L111.209 73.4V81H110.073ZM108.569 73.544V72.6H113.769V73.544H108.569ZM118.586 81.08C117.775 81.08 117.045 80.8987 116.394 80.536C115.754 80.1627 115.247 79.656 114.874 79.016C114.501 78.3653 114.314 77.624 114.314 76.792C114.314 75.9493 114.501 75.208 114.874 74.568C115.247 73.928 115.754 73.4267 116.394 73.064C117.034 72.7013 117.765 72.52 118.586 72.52C119.418 72.52 120.154 72.7013 120.794 73.064C121.445 73.4267 121.951 73.928 122.314 74.568C122.687 75.208 122.874 75.9493 122.874 76.792C122.874 77.624 122.687 78.3653 122.314 79.016C121.951 79.656 121.445 80.1627 120.794 80.536C120.143 80.8987 119.407 81.08 118.586 81.08ZM118.586 80.072C119.194 80.072 119.733 79.9387 120.202 79.672C120.671 79.3947 121.039 79.0107 121.306 78.52C121.583 78.0187 121.722 77.4427 121.722 76.792C121.722 76.1307 121.583 75.5547 121.306 75.064C121.039 74.5733 120.671 74.1947 120.202 73.928C119.733 73.6507 119.199 73.512 118.602 73.512C118.005 73.512 117.471 73.6507 117.002 73.928C116.533 74.1947 116.159 74.5733 115.882 75.064C115.605 75.5547 115.466 76.1307 115.466 76.792C115.466 77.4427 115.605 78.0187 115.882 78.52C116.159 79.0107 116.533 79.3947 117.002 79.672C117.471 79.9387 117.999 80.072 118.586 80.072ZM125.193 81V72.6H126.281V74.888L126.169 74.488C126.404 73.848 126.799 73.3627 127.353 73.032C127.908 72.6907 128.596 72.52 129.417 72.52V73.624C129.375 73.624 129.332 73.624 129.289 73.624C129.247 73.6133 129.204 73.608 129.161 73.608C128.276 73.608 127.583 73.88 127.081 74.424C126.58 74.9573 126.329 75.72 126.329 76.712V81H125.193ZM141.986 72.52C142.669 72.52 143.261 72.6533 143.762 72.92C144.274 73.176 144.669 73.5707 144.946 74.104C145.234 74.6373 145.378 75.3093 145.378 76.12V81H144.242V76.232C144.242 75.3467 144.029 74.68 143.602 74.232C143.186 73.7733 142.594 73.544 141.826 73.544C141.25 73.544 140.749 73.6667 140.322 73.912C139.906 74.1467 139.581 74.4933 139.346 74.952C139.122 75.4 139.01 75.944 139.01 76.584V81H137.874V76.232C137.874 75.3467 137.661 74.68 137.234 74.232C136.808 73.7733 136.21 73.544 135.442 73.544C134.877 73.544 134.381 73.6667 133.954 73.912C133.528 74.1467 133.197 74.4933 132.962 74.952C132.738 75.4 132.626 75.944 132.626 76.584V81H131.49V72.6H132.578V74.872L132.402 74.472C132.658 73.864 133.069 73.3893 133.634 73.048C134.21 72.696 134.888 72.52 135.666 72.52C136.488 72.52 137.186 72.728 137.762 73.144C138.338 73.5493 138.712 74.1627 138.882 74.984L138.434 74.808C138.68 74.1253 139.112 73.576 139.73 73.16C140.36 72.7333 141.112 72.52 141.986 72.52ZM153.723 81V79.144L153.675 78.84V75.736C153.675 75.0213 153.472 74.472 153.067 74.088C152.672 73.704 152.08 73.512 151.291 73.512C150.747 73.512 150.23 73.6027 149.739 73.784C149.248 73.9653 148.832 74.2053 148.491 74.504L147.979 73.656C148.406 73.2933 148.918 73.016 149.515 72.824C150.112 72.6213 150.742 72.52 151.403 72.52C152.491 72.52 153.328 72.792 153.915 73.336C154.512 73.8693 154.811 74.6853 154.811 75.784V81H153.723ZM150.827 81.08C150.198 81.08 149.648 80.9787 149.179 80.776C148.72 80.5627 148.368 80.2747 148.123 79.912C147.878 79.5387 147.755 79.112 147.755 78.632C147.755 78.1947 147.856 77.8 148.059 77.448C148.272 77.0853 148.614 76.7973 149.083 76.584C149.563 76.36 150.203 76.248 151.003 76.248H153.899V77.096H151.035C150.224 77.096 149.659 77.24 149.339 77.528C149.03 77.816 148.875 78.1733 148.875 78.6C148.875 79.08 149.062 79.464 149.435 79.752C149.808 80.04 150.331 80.184 151.003 80.184C151.643 80.184 152.192 80.04 152.651 79.752C153.12 79.4533 153.462 79.0267 153.675 78.472L153.931 79.256C153.718 79.8107 153.344 80.2533 152.811 80.584C152.288 80.9147 151.627 81.08 150.827 81.08ZM161.385 81.08C160.553 81.08 159.806 80.8987 159.145 80.536C158.494 80.1627 157.982 79.656 157.609 79.016C157.235 78.3653 157.049 77.624 157.049 76.792C157.049 75.9493 157.235 75.208 157.609 74.568C157.982 73.928 158.494 73.4267 159.145 73.064C159.806 72.7013 160.553 72.52 161.385 72.52C162.099 72.52 162.745 72.6587 163.321 72.936C163.897 73.2133 164.35 73.6293 164.681 74.184L163.833 74.76C163.545 74.3333 163.187 74.0187 162.761 73.816C162.334 73.6133 161.87 73.512 161.369 73.512C160.771 73.512 160.233 73.6507 159.753 73.928C159.273 74.1947 158.894 74.5733 158.617 75.064C158.339 75.5547 158.201 76.1307 158.201 76.792C158.201 77.4533 158.339 78.0293 158.617 78.52C158.894 79.0107 159.273 79.3947 159.753 79.672C160.233 79.9387 160.771 80.072 161.369 80.072C161.87 80.072 162.334 79.9707 162.761 79.768C163.187 79.5653 163.545 79.256 163.833 78.84L164.681 79.416C164.35 79.96 163.897 80.376 163.321 80.664C162.745 80.9413 162.099 81.08 161.385 81.08ZM166.787 81V72.6H167.923V81H166.787ZM167.363 70.744C167.128 70.744 166.931 70.664 166.771 70.504C166.611 70.344 166.531 70.152 166.531 69.928C166.531 69.704 166.611 69.5173 166.771 69.368C166.931 69.208 167.128 69.128 167.363 69.128C167.598 69.128 167.795 69.2027 167.955 69.352C168.115 69.5013 168.195 69.688 168.195 69.912C168.195 70.1467 168.115 70.344 167.955 70.504C167.806 70.664 167.608 70.744 167.363 70.744ZM174.508 81.08C173.697 81.08 172.967 80.8987 172.316 80.536C171.676 80.1627 171.169 79.656 170.796 79.016C170.423 78.3653 170.236 77.624 170.236 76.792C170.236 75.9493 170.423 75.208 170.796 74.568C171.169 73.928 171.676 73.4267 172.316 73.064C172.956 72.7013 173.687 72.52 174.508 72.52C175.34 72.52 176.076 72.7013 176.716 73.064C177.367 73.4267 177.873 73.928 178.236 74.568C178.609 75.208 178.796 75.9493 178.796 76.792C178.796 77.624 178.609 78.3653 178.236 79.016C177.873 79.656 177.367 80.1627 176.716 80.536C176.065 80.8987 175.329 81.08 174.508 81.08ZM174.508 80.072C175.116 80.072 175.655 79.9387 176.124 79.672C176.593 79.3947 176.961 79.0107 177.228 78.52C177.505 78.0187 177.644 77.4427 177.644 76.792C177.644 76.1307 177.505 75.5547 177.228 75.064C176.961 74.5733 176.593 74.1947 176.124 73.928C175.655 73.6507 175.121 73.512 174.524 73.512C173.927 73.512 173.393 73.6507 172.924 73.928C172.455 74.1947 172.081 74.5733 171.804 75.064C171.527 75.5547 171.388 76.1307 171.388 76.792C171.388 77.4427 171.527 78.0187 171.804 78.52C172.081 79.0107 172.455 79.3947 172.924 79.672C173.393 79.9387 173.921 80.072 174.508 80.072ZM173.468 71.288L175.66 69.304H177.18L174.588 71.288H173.468ZM185.403 72.52C186.086 72.52 186.683 72.6533 187.195 72.92C187.718 73.176 188.123 73.5707 188.411 74.104C188.71 74.6373 188.859 75.3093 188.859 76.12V81H187.723V76.232C187.723 75.3467 187.499 74.68 187.051 74.232C186.614 73.7733 185.995 73.544 185.195 73.544C184.598 73.544 184.075 73.6667 183.627 73.912C183.19 74.1467 182.849 74.4933 182.603 74.952C182.369 75.4 182.251 75.944 182.251 76.584V81H181.115V72.6H182.203V74.904L182.027 74.472C182.294 73.864 182.721 73.3893 183.307 73.048C183.894 72.696 184.593 72.52 185.403 72.52Z" fill="#727272"/>
<path d="M415.844 43V20.6H425.54C427.545 20.6 429.273 20.9307 430.724 21.592C432.174 22.232 433.294 23.16 434.084 24.376C434.873 25.592 435.268 27.0427 435.268 28.728C435.268 30.392 434.873 31.832 434.084 33.048C433.294 34.264 432.174 35.2027 430.724 35.864C429.273 36.504 427.545 36.824 425.54 36.824H418.724L421.028 34.488V43H415.844ZM421.028 35.064L418.724 32.6H425.252C426.852 32.6 428.046 32.2587 428.836 31.576C429.625 30.8933 430.02 29.944 430.02 28.728C430.02 27.4907 429.625 26.5307 428.836 25.848C428.046 25.1653 426.852 24.824 425.252 24.824H418.724L421.028 22.36V35.064ZM449.02 43V39.64L448.7 38.904V32.888C448.7 31.8213 448.37 30.9893 447.708 30.392C447.068 29.7947 446.076 29.496 444.732 29.496C443.815 29.496 442.908 29.6453 442.012 29.944C441.138 30.2213 440.391 30.6053 439.772 31.096L437.98 27.608C438.919 26.9467 440.05 26.4347 441.372 26.072C442.695 25.7093 444.039 25.528 445.404 25.528C448.028 25.528 450.066 26.1467 451.516 27.384C452.967 28.6213 453.692 30.552 453.692 33.176V43H449.02ZM443.772 43.256C442.428 43.256 441.276 43.032 440.316 42.584C439.356 42.1147 438.62 41.4853 438.108 40.696C437.596 39.9067 437.34 39.0213 437.34 38.04C437.34 37.016 437.586 36.12 438.076 35.352C438.588 34.584 439.388 33.9867 440.476 33.56C441.564 33.112 442.983 32.888 444.732 32.888H449.308V35.8H445.276C444.103 35.8 443.292 35.992 442.844 36.376C442.418 36.76 442.204 37.24 442.204 37.816C442.204 38.456 442.45 38.968 442.94 39.352C443.452 39.7147 444.146 39.896 445.02 39.896C445.852 39.896 446.599 39.704 447.26 39.32C447.922 38.9147 448.402 38.328 448.7 37.56L449.468 39.864C449.106 40.9733 448.444 41.816 447.484 42.392C446.524 42.968 445.287 43.256 443.772 43.256ZM464.002 43.256C462.53 43.256 461.112 43.0853 459.746 42.744C458.402 42.3813 457.336 41.9333 456.546 41.4L458.21 37.816C459 38.3067 459.928 38.712 460.994 39.032C462.082 39.3307 463.149 39.48 464.194 39.48C465.346 39.48 466.157 39.3413 466.626 39.064C467.117 38.7867 467.362 38.4027 467.362 37.912C467.362 37.5067 467.17 37.208 466.786 37.016C466.424 36.8027 465.933 36.6427 465.314 36.536C464.696 36.4293 464.013 36.3227 463.266 36.216C462.541 36.1093 461.805 35.9707 461.058 35.8C460.312 35.608 459.629 35.3307 459.01 34.968C458.392 34.6053 457.89 34.1147 457.506 33.496C457.144 32.8773 456.962 32.0773 456.962 31.096C456.962 30.008 457.272 29.048 457.89 28.216C458.53 27.384 459.448 26.7333 460.642 26.264C461.837 25.7733 463.266 25.528 464.93 25.528C466.104 25.528 467.298 25.656 468.514 25.912C469.73 26.168 470.744 26.5413 471.554 27.032L469.89 30.584C469.058 30.0933 468.216 29.7627 467.362 29.592C466.53 29.4 465.72 29.304 464.93 29.304C463.821 29.304 463.01 29.4533 462.498 29.752C461.986 30.0507 461.73 30.4347 461.73 30.904C461.73 31.3307 461.912 31.6507 462.274 31.864C462.658 32.0773 463.16 32.248 463.778 32.376C464.397 32.504 465.069 32.6213 465.794 32.728C466.541 32.8133 467.288 32.952 468.034 33.144C468.781 33.336 469.453 33.6133 470.05 33.976C470.669 34.3173 471.17 34.7973 471.554 35.416C471.938 36.0133 472.13 36.8027 472.13 37.784C472.13 38.8507 471.81 39.8 471.17 40.632C470.53 41.4427 469.602 42.0827 468.386 42.552C467.192 43.0213 465.73 43.256 464.002 43.256ZM483.402 43.256C481.568 43.256 479.936 42.872 478.506 42.104C477.098 41.336 475.978 40.2907 475.146 38.968C474.336 37.624 473.93 36.0987 473.93 34.392C473.93 32.664 474.336 31.1387 475.146 29.816C475.978 28.472 477.098 27.4267 478.506 26.68C479.936 25.912 481.568 25.528 483.402 25.528C485.216 25.528 486.837 25.912 488.266 26.68C489.696 27.4267 490.816 28.4613 491.626 29.784C492.437 31.1067 492.842 32.6427 492.842 34.392C492.842 36.0987 492.437 37.624 491.626 38.968C490.816 40.2907 489.696 41.336 488.266 42.104C486.837 42.872 485.216 43.256 483.402 43.256ZM483.402 39.16C484.234 39.16 484.981 38.968 485.642 38.584C486.304 38.2 486.826 37.656 487.21 36.952C487.594 36.2267 487.786 35.3733 487.786 34.392C487.786 33.3893 487.594 32.536 487.21 31.832C486.826 31.128 486.304 30.584 485.642 30.2C484.981 29.816 484.234 29.624 483.402 29.624C482.57 29.624 481.824 29.816 481.162 30.2C480.501 30.584 479.968 31.128 479.562 31.832C479.178 32.536 478.986 33.3893 478.986 34.392C478.986 35.3733 479.178 36.2267 479.562 36.952C479.968 37.656 480.501 38.2 481.162 38.584C481.824 38.968 482.57 39.16 483.402 39.16ZM503.993 43V39.64L512.634 31.48C513.316 30.8613 513.818 30.3067 514.138 29.816C514.458 29.3253 514.671 28.8773 514.778 28.472C514.906 28.0667 514.97 27.6933 514.97 27.352C514.97 26.456 514.66 25.7733 514.042 25.304C513.444 24.8133 512.559 24.568 511.385 24.568C510.447 24.568 509.572 24.7493 508.762 25.112C507.972 25.4747 507.3 26.04 506.746 26.808L502.97 24.376C503.823 23.096 505.018 22.0827 506.554 21.336C508.09 20.5893 509.86 20.216 511.866 20.216C513.53 20.216 514.98 20.4933 516.218 21.048C517.476 21.5813 518.447 22.3387 519.13 23.32C519.834 24.3013 520.186 25.4747 520.186 26.84C520.186 27.5653 520.09 28.2907 519.898 29.016C519.727 29.72 519.364 30.4667 518.81 31.256C518.276 32.0453 517.487 32.9307 516.442 33.912L509.274 40.664L508.282 38.776H520.922V43H503.993Z" fill="white"/>
<path d="M407.079 65.096C406.236 65.096 405.457 64.9573 404.743 64.68C404.028 64.392 403.409 63.992 402.887 63.48C402.364 62.968 401.953 62.3653 401.655 61.672C401.367 60.9787 401.223 60.2213 401.223 59.4C401.223 58.5787 401.367 57.8213 401.655 57.128C401.953 56.4347 402.364 55.832 402.887 55.32C403.42 54.808 404.044 54.4133 404.759 54.136C405.473 53.848 406.252 53.704 407.095 53.704C407.905 53.704 408.668 53.8427 409.383 54.12C410.097 54.3867 410.7 54.792 411.191 55.336L410.439 56.088C409.98 55.6187 409.473 55.2827 408.919 55.08C408.364 54.8667 407.767 54.76 407.127 54.76C406.455 54.76 405.831 54.8773 405.255 55.112C404.679 55.336 404.177 55.6613 403.751 56.088C403.324 56.504 402.988 56.9947 402.743 57.56C402.508 58.1147 402.391 58.728 402.391 59.4C402.391 60.072 402.508 60.6907 402.743 61.256C402.988 61.8107 403.324 62.3013 403.751 62.728C404.177 63.144 404.679 63.4693 405.255 63.704C405.831 63.928 406.455 64.04 407.127 64.04C407.767 64.04 408.364 63.9333 408.919 63.72C409.473 63.5067 409.98 63.1653 410.439 62.696L411.191 63.448C410.7 63.992 410.097 64.4027 409.383 64.68C408.668 64.9573 407.9 65.096 407.079 65.096ZM418.614 65V63.144L418.566 62.84V59.736C418.566 59.0213 418.363 58.472 417.958 58.088C417.563 57.704 416.971 57.512 416.182 57.512C415.638 57.512 415.12 57.6027 414.63 57.784C414.139 57.9653 413.723 58.2053 413.382 58.504L412.87 57.656C413.296 57.2933 413.808 57.016 414.406 56.824C415.003 56.6213 415.632 56.52 416.294 56.52C417.382 56.52 418.219 56.792 418.806 57.336C419.403 57.8693 419.702 58.6853 419.702 59.784V65H418.614ZM415.718 65.08C415.088 65.08 414.539 64.9787 414.07 64.776C413.611 64.5627 413.259 64.2747 413.014 63.912C412.768 63.5387 412.646 63.112 412.646 62.632C412.646 62.1947 412.747 61.8 412.95 61.448C413.163 61.0853 413.504 60.7973 413.974 60.584C414.454 60.36 415.094 60.248 415.894 60.248H418.79V61.096H415.926C415.115 61.096 414.55 61.24 414.23 61.528C413.92 61.816 413.766 62.1733 413.766 62.6C413.766 63.08 413.952 63.464 414.326 63.752C414.699 64.04 415.222 64.184 415.894 64.184C416.534 64.184 417.083 64.04 417.542 63.752C418.011 63.4533 418.352 63.0267 418.566 62.472L418.822 63.256C418.608 63.8107 418.235 64.2533 417.702 64.584C417.179 64.9147 416.518 65.08 415.718 65.08ZM422.787 65V56.6H423.875V58.888L423.763 58.488C423.998 57.848 424.392 57.3627 424.947 57.032C425.502 56.6907 426.19 56.52 427.011 56.52V57.624C426.968 57.624 426.926 57.624 426.883 57.624C426.84 57.6133 426.798 57.608 426.755 57.608C425.87 57.608 425.176 57.88 424.675 58.424C424.174 58.9573 423.923 59.72 423.923 60.712V65H422.787ZM432.59 68.184C431.822 68.184 431.086 68.072 430.382 67.848C429.678 67.624 429.107 67.304 428.67 66.888L429.246 66.024C429.641 66.376 430.126 66.6533 430.702 66.856C431.289 67.0693 431.907 67.176 432.558 67.176C433.625 67.176 434.409 66.9253 434.91 66.424C435.411 65.9333 435.662 65.1653 435.662 64.12V62.024L435.822 60.584L435.71 59.144V56.6H436.798V63.976C436.798 65.4267 436.441 66.488 435.726 67.16C435.022 67.8427 433.977 68.184 432.59 68.184ZM432.382 64.68C431.582 64.68 430.862 64.5093 430.222 64.168C429.582 63.816 429.075 63.3307 428.702 62.712C428.339 62.0933 428.158 61.384 428.158 60.584C428.158 59.784 428.339 59.08 428.702 58.472C429.075 57.8533 429.582 57.3733 430.222 57.032C430.862 56.6907 431.582 56.52 432.382 56.52C433.129 56.52 433.801 56.6747 434.398 56.984C434.995 57.2933 435.47 57.752 435.822 58.36C436.174 58.968 436.35 59.7093 436.35 60.584C436.35 61.4587 436.174 62.2 435.822 62.808C435.47 63.416 434.995 63.88 434.398 64.2C433.801 64.52 433.129 64.68 432.382 64.68ZM432.494 63.672C433.113 63.672 433.662 63.544 434.142 63.288C434.622 63.0213 435.001 62.6587 435.278 62.2C435.555 61.7307 435.694 61.192 435.694 60.584C435.694 59.976 435.555 59.4427 435.278 58.984C435.001 58.5253 434.622 58.168 434.142 57.912C433.662 57.6453 433.113 57.512 432.494 57.512C431.886 57.512 431.337 57.6453 430.846 57.912C430.366 58.168 429.987 58.5253 429.71 58.984C429.443 59.4427 429.31 59.976 429.31 60.584C429.31 61.192 429.443 61.7307 429.71 62.2C429.987 62.6587 430.366 63.0213 430.846 63.288C431.337 63.544 431.886 63.672 432.494 63.672ZM445.223 65V63.144L445.175 62.84V59.736C445.175 59.0213 444.972 58.472 444.567 58.088C444.172 57.704 443.58 57.512 442.791 57.512C442.247 57.512 441.73 57.6027 441.239 57.784C440.748 57.9653 440.332 58.2053 439.991 58.504L439.479 57.656C439.906 57.2933 440.418 57.016 441.015 56.824C441.612 56.6213 442.242 56.52 442.903 56.52C443.991 56.52 444.828 56.792 445.415 57.336C446.012 57.8693 446.311 58.6853 446.311 59.784V65H445.223ZM442.327 65.08C441.698 65.08 441.148 64.9787 440.679 64.776C440.22 64.5627 439.868 64.2747 439.623 63.912C439.378 63.5387 439.255 63.112 439.255 62.632C439.255 62.1947 439.356 61.8 439.559 61.448C439.772 61.0853 440.114 60.7973 440.583 60.584C441.063 60.36 441.703 60.248 442.503 60.248H445.399V61.096H442.535C441.724 61.096 441.159 61.24 440.839 61.528C440.53 61.816 440.375 62.1733 440.375 62.6C440.375 63.08 440.562 63.464 440.935 63.752C441.308 64.04 441.831 64.184 442.503 64.184C443.143 64.184 443.692 64.04 444.151 63.752C444.62 63.4533 444.962 63.0267 445.175 62.472L445.431 63.256C445.218 63.8107 444.844 64.2533 444.311 64.584C443.788 64.9147 443.127 65.08 442.327 65.08ZM456.912 65.096C456.08 65.096 455.28 64.9627 454.512 64.696C453.755 64.4187 453.168 64.0667 452.752 63.64L453.216 62.728C453.611 63.112 454.139 63.4373 454.8 63.704C455.472 63.96 456.176 64.088 456.912 64.088C457.616 64.088 458.187 64.0027 458.624 63.832C459.072 63.6507 459.397 63.4107 459.6 63.112C459.813 62.8133 459.92 62.4827 459.92 62.12C459.92 61.6827 459.792 61.3307 459.536 61.064C459.291 60.7973 458.965 60.5893 458.56 60.44C458.155 60.28 457.707 60.1413 457.216 60.024C456.725 59.9067 456.235 59.784 455.744 59.656C455.253 59.5173 454.8 59.336 454.384 59.112C453.979 58.888 453.648 58.5947 453.392 58.232C453.147 57.8587 453.024 57.3733 453.024 56.776C453.024 56.2213 453.168 55.7147 453.456 55.256C453.755 54.7867 454.208 54.4133 454.816 54.136C455.424 53.848 456.203 53.704 457.152 53.704C457.781 53.704 458.405 53.7947 459.024 53.976C459.643 54.1467 460.176 54.3867 460.624 54.696L460.224 55.64C459.744 55.32 459.232 55.0853 458.688 54.936C458.155 54.7867 457.637 54.712 457.136 54.712C456.464 54.712 455.909 54.8027 455.472 54.984C455.035 55.1653 454.709 55.4107 454.496 55.72C454.293 56.0187 454.192 56.36 454.192 56.744C454.192 57.1813 454.315 57.5333 454.56 57.8C454.816 58.0667 455.147 58.2747 455.552 58.424C455.968 58.5733 456.421 58.7067 456.912 58.824C457.403 58.9413 457.888 59.0693 458.368 59.208C458.859 59.3467 459.307 59.528 459.712 59.752C460.128 59.9653 460.459 60.2533 460.704 60.616C460.96 60.9787 461.088 61.4533 461.088 62.04C461.088 62.584 460.939 63.0907 460.64 63.56C460.341 64.0187 459.883 64.392 459.264 64.68C458.656 64.9573 457.872 65.096 456.912 65.096ZM466.852 65.08C466.041 65.08 465.31 64.8987 464.66 64.536C464.02 64.1627 463.513 63.656 463.14 63.016C462.766 62.3653 462.58 61.624 462.58 60.792C462.58 59.9493 462.766 59.208 463.14 58.568C463.513 57.928 464.02 57.4267 464.66 57.064C465.3 56.7013 466.03 56.52 466.852 56.52C467.684 56.52 468.42 56.7013 469.06 57.064C469.71 57.4267 470.217 57.928 470.58 58.568C470.953 59.208 471.14 59.9493 471.14 60.792C471.14 61.624 470.953 62.3653 470.58 63.016C470.217 63.656 469.71 64.1627 469.06 64.536C468.409 64.8987 467.673 65.08 466.852 65.08ZM466.852 64.072C467.46 64.072 467.998 63.9387 468.468 63.672C468.937 63.3947 469.305 63.0107 469.572 62.52C469.849 62.0187 469.988 61.4427 469.988 60.792C469.988 60.1307 469.849 59.5547 469.572 59.064C469.305 58.5733 468.937 58.1947 468.468 57.928C467.998 57.6507 467.465 57.512 466.868 57.512C466.27 57.512 465.737 57.6507 465.268 57.928C464.798 58.1947 464.425 58.5733 464.148 59.064C463.87 59.5547 463.732 60.1307 463.732 60.792C463.732 61.4427 463.87 62.0187 464.148 62.52C464.425 63.0107 464.798 63.3947 465.268 63.672C465.737 63.9387 466.265 64.072 466.852 64.072ZM473.459 65V53.128H474.595V65H473.459ZM477.756 65V56.6H478.892V65H477.756ZM478.332 54.744C478.097 54.744 477.9 54.664 477.74 54.504C477.58 54.344 477.5 54.152 477.5 53.928C477.5 53.704 477.58 53.5173 477.74 53.368C477.9 53.208 478.097 53.128 478.332 53.128C478.567 53.128 478.764 53.2027 478.924 53.352C479.084 53.5013 479.164 53.688 479.164 53.912C479.164 54.1467 479.084 54.344 478.924 54.504C478.775 54.664 478.577 54.744 478.332 54.744ZM485.541 65.08C484.709 65.08 483.962 64.8987 483.301 64.536C482.65 64.1627 482.138 63.656 481.765 63.016C481.391 62.3653 481.205 61.624 481.205 60.792C481.205 59.9493 481.391 59.208 481.765 58.568C482.138 57.928 482.65 57.4267 483.301 57.064C483.962 56.7013 484.709 56.52 485.541 56.52C486.255 56.52 486.901 56.6587 487.477 56.936C488.053 57.2133 488.506 57.6293 488.837 58.184L487.989 58.76C487.701 58.3333 487.343 58.0187 486.917 57.816C486.49 57.6133 486.026 57.512 485.525 57.512C484.927 57.512 484.389 57.6507 483.909 57.928C483.429 58.1947 483.05 58.5733 482.773 59.064C482.495 59.5547 482.357 60.1307 482.357 60.792C482.357 61.4533 482.495 62.0293 482.773 62.52C483.05 63.0107 483.429 63.3947 483.909 63.672C484.389 63.9387 484.927 64.072 485.525 64.072C486.026 64.072 486.49 63.9707 486.917 63.768C487.343 63.5653 487.701 63.256 487.989 62.84L488.837 63.416C488.506 63.96 488.053 64.376 487.477 64.664C486.901 64.9413 486.255 65.08 485.541 65.08ZM490.943 65V56.6H492.079V65H490.943ZM491.519 54.744C491.285 54.744 491.087 54.664 490.927 54.504C490.767 54.344 490.687 54.152 490.687 53.928C490.687 53.704 490.767 53.5173 490.927 53.368C491.087 53.208 491.285 53.128 491.519 53.128C491.754 53.128 491.951 53.2027 492.111 53.352C492.271 53.5013 492.351 53.688 492.351 53.912C492.351 54.1467 492.271 54.344 492.111 54.504C491.962 54.664 491.765 54.744 491.519 54.744ZM497.896 65.08C497.107 65.08 496.499 64.8667 496.072 64.44C495.646 64.0133 495.432 63.4107 495.432 62.632V54.744H496.568V62.568C496.568 63.0587 496.691 63.4373 496.936 63.704C497.192 63.9707 497.555 64.104 498.024 64.104C498.526 64.104 498.942 63.96 499.272 63.672L499.672 64.488C499.448 64.6907 499.176 64.84 498.856 64.936C498.547 65.032 498.227 65.08 497.896 65.08ZM493.928 57.544V56.6H499.128V57.544H493.928ZM505.212 65.08C504.498 65.08 503.874 64.9467 503.34 64.68C502.807 64.4133 502.391 64.0133 502.092 63.48C501.804 62.9467 501.66 62.28 501.66 61.48V56.6H502.796V61.352C502.796 62.248 503.015 62.9253 503.452 63.384C503.9 63.832 504.524 64.056 505.324 64.056C505.911 64.056 506.418 63.9387 506.844 63.704C507.282 63.4587 507.612 63.1067 507.836 62.648C508.071 62.1893 508.188 61.64 508.188 61V56.6H509.324V65H508.236V62.696L508.412 63.112C508.146 63.7307 507.73 64.216 507.164 64.568C506.61 64.9093 505.959 65.08 505.212 65.08ZM515.834 65.08C515.034 65.08 514.314 64.8987 513.674 64.536C513.045 64.1733 512.549 63.672 512.186 63.032C511.824 62.3813 511.642 61.6347 511.642 60.792C511.642 59.9387 511.824 59.192 512.186 58.552C512.549 57.912 513.045 57.416 513.674 57.064C514.314 56.7013 515.034 56.52 515.834 56.52C516.57 56.52 517.226 56.6853 517.802 57.016C518.389 57.3467 518.853 57.832 519.194 58.472C519.546 59.1013 519.722 59.8747 519.722 60.792C519.722 61.6987 519.552 62.472 519.21 63.112C518.869 63.752 518.405 64.2427 517.818 64.584C517.242 64.9147 516.581 65.08 515.834 65.08ZM515.914 64.072C516.512 64.072 517.045 63.9387 517.514 63.672C517.994 63.3947 518.368 63.0107 518.634 62.52C518.912 62.0187 519.05 61.4427 519.05 60.792C519.05 60.1307 518.912 59.5547 518.634 59.064C518.368 58.5733 517.994 58.1947 517.514 57.928C517.045 57.6507 516.512 57.512 515.914 57.512C515.328 57.512 514.8 57.6507 514.33 57.928C513.861 58.1947 513.488 58.5733 513.21 59.064C512.933 59.5547 512.794 60.1307 512.794 60.792C512.794 61.4427 512.933 62.0187 513.21 62.52C513.488 63.0107 513.861 63.3947 514.33 63.672C514.8 63.9387 515.328 64.072 515.914 64.072ZM519.082 65V62.472L519.194 60.776L519.034 59.08V53.128H520.17V65H519.082ZM527.586 68.184C527.191 68.184 526.812 68.12 526.45 67.992C526.098 67.864 525.793 67.672 525.537 67.416L526.066 66.568C526.279 66.7707 526.508 66.9253 526.754 67.032C527.01 67.1493 527.292 67.208 527.602 67.208C527.975 67.208 528.295 67.1013 528.562 66.888C528.839 66.6853 529.1 66.3227 529.346 65.8L529.89 64.568L530.018 64.392L533.474 56.6H534.594L530.386 66.008C530.151 66.552 529.89 66.984 529.602 67.304C529.324 67.624 529.02 67.848 528.69 67.976C528.359 68.1147 527.991 68.184 527.586 68.184ZM529.826 65.24L525.954 56.6H527.138L530.562 64.312L529.826 65.24ZM408.808 81V69.8H413C413.95 69.8 414.766 69.9547 415.448 70.264C416.131 70.5627 416.654 71 417.016 71.576C417.39 72.1413 417.576 72.8293 417.576 73.64C417.576 74.4293 417.39 75.112 417.016 75.688C416.654 76.2533 416.131 76.6907 415.448 77C414.766 77.2987 413.95 77.448 413 77.448H409.464L409.992 76.904V81H408.808ZM416.456 81L413.576 76.936H414.856L417.752 81H416.456ZM409.992 77L409.464 76.44H412.968C414.088 76.44 414.936 76.1947 415.512 75.704C416.099 75.2133 416.392 74.5253 416.392 73.64C416.392 72.744 416.099 72.0507 415.512 71.56C414.936 71.0693 414.088 70.824 412.968 70.824H409.464L409.992 70.264V77ZM423.699 81.08C422.824 81.08 422.056 80.8987 421.395 80.536C420.734 80.1627 420.216 79.656 419.843 79.016C419.47 78.3653 419.283 77.624 419.283 76.792C419.283 75.96 419.459 75.224 419.811 74.584C420.174 73.944 420.664 73.4427 421.283 73.08C421.912 72.7067 422.616 72.52 423.395 72.52C424.184 72.52 424.883 72.7013 425.491 73.064C426.11 73.416 426.595 73.9173 426.947 74.568C427.299 75.208 427.475 75.9493 427.475 76.792C427.475 76.8453 427.47 76.904 427.459 76.968C427.459 77.0213 427.459 77.08 427.459 77.144H420.147V76.296H426.851L426.403 76.632C426.403 76.024 426.27 75.4853 426.003 75.016C425.747 74.536 425.395 74.1627 424.947 73.896C424.499 73.6293 423.982 73.496 423.395 73.496C422.819 73.496 422.302 73.6293 421.843 73.896C421.384 74.1627 421.027 74.536 420.771 75.016C420.515 75.496 420.387 76.0453 420.387 76.664V76.84C420.387 77.48 420.526 78.0453 420.803 78.536C421.091 79.016 421.486 79.3947 421.987 79.672C422.499 79.9387 423.08 80.072 423.731 80.072C424.243 80.072 424.718 79.9813 425.155 79.8C425.603 79.6187 425.987 79.3413 426.307 78.968L426.947 79.704C426.574 80.152 426.104 80.4933 425.539 80.728C424.984 80.9627 424.371 81.08 423.699 81.08ZM433.131 81.08C432.331 81.08 431.611 80.8987 430.971 80.536C430.342 80.1733 429.846 79.672 429.483 79.032C429.12 78.392 428.939 77.6453 428.939 76.792C428.939 75.9493 429.12 75.208 429.483 74.568C429.846 73.9173 430.342 73.416 430.971 73.064C431.611 72.7013 432.331 72.52 433.131 72.52C433.878 72.52 434.539 72.6853 435.115 73.016C435.702 73.3467 436.166 73.832 436.507 74.472C436.848 75.1013 437.019 75.8747 437.019 76.792C437.019 77.7093 436.843 78.488 436.491 79.128C436.15 79.7573 435.686 80.2427 435.099 80.584C434.523 80.9147 433.867 81.08 433.131 81.08ZM433.211 80.072C433.808 80.072 434.342 79.9387 434.811 79.672C435.291 79.3947 435.664 79.0107 435.931 78.52C436.208 78.0187 436.347 77.4427 436.347 76.792C436.347 76.1413 436.208 75.5707 435.931 75.08C435.664 74.5893 435.291 74.2053 434.811 73.928C434.342 73.6507 433.808 73.512 433.211 73.512C432.624 73.512 432.096 73.6507 431.627 73.928C431.158 74.2053 430.784 74.5893 430.507 75.08C430.23 75.5707 430.091 76.1413 430.091 76.792C430.091 77.4427 430.23 78.0187 430.507 78.52C430.784 79.0107 431.158 79.3947 431.627 79.672C432.096 79.9387 432.624 80.072 433.211 80.072ZM436.331 84.104V78.504L436.491 76.808L436.379 75.128V72.6H437.467V84.104H436.331ZM444.103 81.08C443.388 81.08 442.764 80.9467 442.231 80.68C441.698 80.4133 441.282 80.0133 440.983 79.48C440.695 78.9467 440.551 78.28 440.551 77.48V72.6H441.687V77.352C441.687 78.248 441.906 78.9253 442.343 79.384C442.791 79.832 443.415 80.056 444.215 80.056C444.802 80.056 445.308 79.9387 445.735 79.704C446.172 79.4587 446.503 79.1067 446.727 78.648C446.962 78.1893 447.079 77.64 447.079 77V72.6H448.215V81H447.127V78.696L447.303 79.112C447.036 79.7307 446.62 80.216 446.055 80.568C445.5 80.9093 444.85 81.08 444.103 81.08ZM454.949 81.08C454.074 81.08 453.306 80.8987 452.645 80.536C451.984 80.1627 451.466 79.656 451.093 79.016C450.72 78.3653 450.533 77.624 450.533 76.792C450.533 75.96 450.709 75.224 451.061 74.584C451.424 73.944 451.914 73.4427 452.533 73.08C453.162 72.7067 453.866 72.52 454.645 72.52C455.434 72.52 456.133 72.7013 456.741 73.064C457.36 73.416 457.845 73.9173 458.197 74.568C458.549 75.208 458.725 75.9493 458.725 76.792C458.725 76.8453 458.72 76.904 458.709 76.968C458.709 77.0213 458.709 77.08 458.709 77.144H451.397V76.296H458.101L457.653 76.632C457.653 76.024 457.52 75.4853 457.253 75.016C456.997 74.536 456.645 74.1627 456.197 73.896C455.749 73.6293 455.232 73.496 454.645 73.496C454.069 73.496 453.552 73.6293 453.093 73.896C452.634 74.1627 452.277 74.536 452.021 75.016C451.765 75.496 451.637 76.0453 451.637 76.664V76.84C451.637 77.48 451.776 78.0453 452.053 78.536C452.341 79.016 452.736 79.3947 453.237 79.672C453.749 79.9387 454.33 80.072 454.981 80.072C455.493 80.072 455.968 79.9813 456.405 79.8C456.853 79.6187 457.237 79.3413 457.557 78.968L458.197 79.704C457.824 80.152 457.354 80.4933 456.789 80.728C456.234 80.9627 455.621 81.08 454.949 81.08ZM461.037 81V72.6H462.125V74.888L462.013 74.488C462.248 73.848 462.642 73.3627 463.197 73.032C463.752 72.6907 464.44 72.52 465.261 72.52V73.624C465.218 73.624 465.176 73.624 465.133 73.624C465.09 73.6133 465.048 73.608 465.005 73.608C464.12 73.608 463.426 73.88 462.925 74.424C462.424 74.9573 462.173 75.72 462.173 76.712V81H461.037ZM467.334 81V72.6H468.47V81H467.334ZM467.91 70.744C467.675 70.744 467.478 70.664 467.318 70.504C467.158 70.344 467.078 70.152 467.078 69.928C467.078 69.704 467.158 69.5173 467.318 69.368C467.478 69.208 467.675 69.128 467.91 69.128C468.145 69.128 468.342 69.2027 468.502 69.352C468.662 69.5013 468.742 69.688 468.742 69.912C468.742 70.1467 468.662 70.344 468.502 70.504C468.353 70.664 468.155 70.744 467.91 70.744ZM482.127 72.52C482.81 72.52 483.402 72.6533 483.903 72.92C484.415 73.176 484.81 73.5707 485.087 74.104C485.375 74.6373 485.519 75.3093 485.519 76.12V81H484.383V76.232C484.383 75.3467 484.17 74.68 483.743 74.232C483.327 73.7733 482.735 73.544 481.967 73.544C481.391 73.544 480.89 73.6667 480.463 73.912C480.047 74.1467 479.722 74.4933 479.487 74.952C479.263 75.4 479.151 75.944 479.151 76.584V81H478.015V76.232C478.015 75.3467 477.802 74.68 477.375 74.232C476.948 73.7733 476.351 73.544 475.583 73.544C475.018 73.544 474.522 73.6667 474.095 73.912C473.668 74.1467 473.338 74.4933 473.103 74.952C472.879 75.4 472.767 75.944 472.767 76.584V81H471.631V72.6H472.719V74.872L472.543 74.472C472.799 73.864 473.21 73.3893 473.775 73.048C474.351 72.696 475.028 72.52 475.807 72.52C476.628 72.52 477.327 72.728 477.903 73.144C478.479 73.5493 478.852 74.1627 479.023 74.984L478.575 74.808C478.82 74.1253 479.252 73.576 479.871 73.16C480.5 72.7333 481.252 72.52 482.127 72.52ZM488.6 81V72.6H489.736V81H488.6ZM489.176 70.744C488.941 70.744 488.744 70.664 488.584 70.504C488.424 70.344 488.344 70.152 488.344 69.928C488.344 69.704 488.424 69.5173 488.584 69.368C488.744 69.208 488.941 69.128 489.176 69.128C489.41 69.128 489.608 69.2027 489.768 69.352C489.928 69.5013 490.008 69.688 490.008 69.912C490.008 70.1467 489.928 70.344 489.768 70.504C489.618 70.664 489.421 70.744 489.176 70.744ZM496.465 81.08C495.59 81.08 494.822 80.8987 494.161 80.536C493.499 80.1627 492.982 79.656 492.609 79.016C492.235 78.3653 492.049 77.624 492.049 76.792C492.049 75.96 492.225 75.224 492.577 74.584C492.939 73.944 493.43 73.4427 494.049 73.08C494.678 72.7067 495.382 72.52 496.161 72.52C496.95 72.52 497.649 72.7013 498.257 73.064C498.875 73.416 499.361 73.9173 499.713 74.568C500.065 75.208 500.241 75.9493 500.241 76.792C500.241 76.8453 500.235 76.904 500.225 76.968C500.225 77.0213 500.225 77.08 500.225 77.144H492.913V76.296H499.617L499.169 76.632C499.169 76.024 499.035 75.4853 498.769 75.016C498.513 74.536 498.161 74.1627 497.713 73.896C497.265 73.6293 496.747 73.496 496.161 73.496C495.585 73.496 495.067 73.6293 494.609 73.896C494.15 74.1627 493.793 74.536 493.537 75.016C493.281 75.496 493.153 76.0453 493.153 76.664V76.84C493.153 77.48 493.291 78.0453 493.569 78.536C493.857 79.016 494.251 79.3947 494.753 79.672C495.265 79.9387 495.846 80.072 496.497 80.072C497.009 80.072 497.483 79.9813 497.921 79.8C498.369 79.6187 498.753 79.3413 499.073 78.968L499.713 79.704C499.339 80.152 498.87 80.4933 498.305 80.728C497.75 80.9627 497.137 81.08 496.465 81.08ZM506.841 72.52C507.523 72.52 508.121 72.6533 508.633 72.92C509.155 73.176 509.561 73.5707 509.849 74.104C510.147 74.6373 510.297 75.3093 510.297 76.12V81H509.161V76.232C509.161 75.3467 508.937 74.68 508.489 74.232C508.051 73.7733 507.433 73.544 506.633 73.544C506.035 73.544 505.513 73.6667 505.065 73.912C504.627 74.1467 504.286 74.4933 504.041 74.952C503.806 75.4 503.689 75.944 503.689 76.584V81H502.553V72.6H503.641V74.904L503.465 74.472C503.731 73.864 504.158 73.3893 504.745 73.048C505.331 72.696 506.03 72.52 506.841 72.52ZM516.021 81.08C515.232 81.08 514.624 80.8667 514.197 80.44C513.771 80.0133 513.557 79.4107 513.557 78.632V70.744H514.693V78.568C514.693 79.0587 514.816 79.4373 515.061 79.704C515.317 79.9707 515.68 80.104 516.149 80.104C516.651 80.104 517.067 79.96 517.397 79.672L517.797 80.488C517.573 80.6907 517.301 80.84 516.981 80.936C516.672 81.032 516.352 81.08 516.021 81.08ZM512.053 73.544V72.6H517.253V73.544H512.053ZM522.992 81.08C522.182 81.08 521.451 80.8987 520.8 80.536C520.16 80.1627 519.654 79.656 519.28 79.016C518.907 78.3653 518.72 77.624 518.72 76.792C518.72 75.9493 518.907 75.208 519.28 74.568C519.654 73.928 520.16 73.4267 520.8 73.064C521.44 72.7013 522.171 72.52 522.992 72.52C523.824 72.52 524.56 72.7013 525.2 73.064C525.851 73.4267 526.358 73.928 526.72 74.568C527.094 75.208 527.28 75.9493 527.28 76.792C527.28 77.624 527.094 78.3653 526.72 79.016C526.358 79.656 525.851 80.1627 525.2 80.536C524.55 80.8987 523.814 81.08 522.992 81.08ZM522.992 80.072C523.6 80.072 524.139 79.9387 524.608 79.672C525.078 79.3947 525.446 79.0107 525.712 78.52C525.99 78.0187 526.128 77.4427 526.128 76.792C526.128 76.1307 525.99 75.5547 525.712 75.064C525.446 74.5733 525.078 74.1947 524.608 73.928C524.139 73.6507 523.606 73.512 523.008 73.512C522.411 73.512 521.878 73.6507 521.408 73.928C520.939 74.1947 520.566 74.5733 520.288 75.064C520.011 75.5547 519.872 76.1307 519.872 76.792C519.872 77.4427 520.011 78.0187 520.288 78.52C520.566 79.0107 520.939 79.3947 521.408 79.672C521.878 79.9387 522.406 80.072 522.992 80.072Z" fill="white"/>
<path d="M706.312 43V20.6H716.008C718.014 20.6 719.742 20.9307 721.192 21.592C722.643 22.232 723.763 23.16 724.552 24.376C725.342 25.592 725.736 27.0427 725.736 28.728C725.736 30.392 725.342 31.832 724.552 33.048C723.763 34.264 722.643 35.2027 721.192 35.864C719.742 36.504 718.014 36.824 716.008 36.824H709.192L711.496 34.488V43H706.312ZM711.496 35.064L709.192 32.6H715.72C717.32 32.6 718.515 32.2587 719.304 31.576C720.094 30.8933 720.488 29.944 720.488 28.728C720.488 27.4907 720.094 26.5307 719.304 25.848C718.515 25.1653 717.32 24.824 715.72 24.824H709.192L711.496 22.36V35.064ZM739.489 43V39.64L739.169 38.904V32.888C739.169 31.8213 738.838 30.9893 738.177 30.392C737.537 29.7947 736.545 29.496 735.201 29.496C734.284 29.496 733.377 29.6453 732.481 29.944C731.606 30.2213 730.86 30.6053 730.241 31.096L728.449 27.608C729.388 26.9467 730.518 26.4347 731.841 26.072C733.164 25.7093 734.508 25.528 735.873 25.528C738.497 25.528 740.534 26.1467 741.985 27.384C743.436 28.6213 744.161 30.552 744.161 33.176V43H739.489ZM734.241 43.256C732.897 43.256 731.745 43.032 730.785 42.584C729.825 42.1147 729.089 41.4853 728.577 40.696C728.065 39.9067 727.809 39.0213 727.809 38.04C727.809 37.016 728.054 36.12 728.545 35.352C729.057 34.584 729.857 33.9867 730.945 33.56C732.033 33.112 733.452 32.888 735.201 32.888H739.777V35.8H735.745C734.572 35.8 733.761 35.992 733.313 36.376C732.886 36.76 732.673 37.24 732.673 37.816C732.673 38.456 732.918 38.968 733.409 39.352C733.921 39.7147 734.614 39.896 735.489 39.896C736.321 39.896 737.068 39.704 737.729 39.32C738.39 38.9147 738.87 38.328 739.169 37.56L739.937 39.864C739.574 40.9733 738.913 41.816 737.953 42.392C736.993 42.968 735.756 43.256 734.241 43.256ZM754.471 43.256C752.999 43.256 751.58 43.0853 750.215 42.744C748.871 42.3813 747.804 41.9333 747.015 41.4L748.679 37.816C749.468 38.3067 750.396 38.712 751.463 39.032C752.551 39.3307 753.618 39.48 754.663 39.48C755.815 39.48 756.626 39.3413 757.095 39.064C757.586 38.7867 757.831 38.4027 757.831 37.912C757.831 37.5067 757.639 37.208 757.255 37.016C756.892 36.8027 756.402 36.6427 755.783 36.536C755.164 36.4293 754.482 36.3227 753.735 36.216C753.01 36.1093 752.274 35.9707 751.527 35.8C750.78 35.608 750.098 35.3307 749.479 34.968C748.86 34.6053 748.359 34.1147 747.975 33.496C747.612 32.8773 747.431 32.0773 747.431 31.096C747.431 30.008 747.74 29.048 748.359 28.216C748.999 27.384 749.916 26.7333 751.111 26.264C752.306 25.7733 753.735 25.528 755.399 25.528C756.572 25.528 757.767 25.656 758.983 25.912C760.199 26.168 761.212 26.5413 762.023 27.032L760.359 30.584C759.527 30.0933 758.684 29.7627 757.831 29.592C756.999 29.4 756.188 29.304 755.399 29.304C754.29 29.304 753.479 29.4533 752.967 29.752C752.455 30.0507 752.199 30.4347 752.199 30.904C752.199 31.3307 752.38 31.6507 752.743 31.864C753.127 32.0773 753.628 32.248 754.247 32.376C754.866 32.504 755.538 32.6213 756.263 32.728C757.01 32.8133 757.756 32.952 758.503 33.144C759.25 33.336 759.922 33.6133 760.519 33.976C761.138 34.3173 761.639 34.7973 762.023 35.416C762.407 36.0133 762.599 36.8027 762.599 37.784C762.599 38.8507 762.279 39.8 761.639 40.632C760.999 41.4427 760.071 42.0827 758.855 42.552C757.66 43.0213 756.199 43.256 754.471 43.256ZM773.871 43.256C772.036 43.256 770.404 42.872 768.975 42.104C767.567 41.336 766.447 40.2907 765.615 38.968C764.804 37.624 764.399 36.0987 764.399 34.392C764.399 32.664 764.804 31.1387 765.615 29.816C766.447 28.472 767.567 27.4267 768.975 26.68C770.404 25.912 772.036 25.528 773.871 25.528C775.684 25.528 777.306 25.912 778.735 26.68C780.164 27.4267 781.284 28.4613 782.095 29.784C782.906 31.1067 783.311 32.6427 783.311 34.392C783.311 36.0987 782.906 37.624 782.095 38.968C781.284 40.2907 780.164 41.336 778.735 42.104C777.306 42.872 775.684 43.256 773.871 43.256ZM773.871 39.16C774.703 39.16 775.45 38.968 776.111 38.584C776.772 38.2 777.295 37.656 777.679 36.952C778.063 36.2267 778.255 35.3733 778.255 34.392C778.255 33.3893 778.063 32.536 777.679 31.832C777.295 31.128 776.772 30.584 776.111 30.2C775.45 29.816 774.703 29.624 773.871 29.624C773.039 29.624 772.292 29.816 771.631 30.2C770.97 30.584 770.436 31.128 770.031 31.832C769.647 32.536 769.455 33.3893 769.455 34.392C769.455 35.3733 769.647 36.2267 770.031 36.952C770.436 37.656 770.97 38.2 771.631 38.584C772.292 38.968 773.039 39.16 773.871 39.16ZM801.918 43.384C800.361 43.384 798.814 43.1813 797.278 42.776C795.742 42.3493 794.441 41.752 793.374 40.984L795.39 37.016C796.244 37.6347 797.236 38.1253 798.366 38.488C799.497 38.8507 800.638 39.032 801.79 39.032C803.092 39.032 804.116 38.776 804.862 38.264C805.609 37.752 805.982 37.048 805.982 36.152C805.982 35.2987 805.652 34.6267 804.99 34.136C804.329 33.6453 803.262 33.4 801.79 33.4H799.422V29.976L805.662 22.904L806.238 24.76H794.494V20.6H810.174V23.96L803.966 31.032L801.342 29.528H802.846C805.598 29.528 807.678 30.1467 809.086 31.384C810.494 32.6213 811.198 34.2107 811.198 36.152C811.198 37.4107 810.868 38.5947 810.206 39.704C809.545 40.792 808.532 41.6773 807.166 42.36C805.801 43.0427 804.052 43.384 801.918 43.384Z" fill="#727272"/>
<path d="M730.641 64.096C729.798 64.096 729.02 63.9573 728.305 63.68C727.59 63.392 726.972 62.992 726.449 62.48C725.926 61.968 725.516 61.3653 725.217 60.672C724.929 59.9787 724.785 59.2213 724.785 58.4C724.785 57.5787 724.929 56.8213 725.217 56.128C725.516 55.4347 725.926 54.832 726.449 54.32C726.982 53.808 727.606 53.4133 728.321 53.136C729.036 52.848 729.814 52.704 730.657 52.704C731.468 52.704 732.23 52.8427 732.945 53.12C733.66 53.3867 734.262 53.792 734.753 54.336L734.001 55.088C733.542 54.6187 733.036 54.2827 732.481 54.08C731.926 53.8667 731.329 53.76 730.689 53.76C730.017 53.76 729.393 53.8773 728.817 54.112C728.241 54.336 727.74 54.6613 727.313 55.088C726.886 55.504 726.55 55.9947 726.305 56.56C726.07 57.1147 725.953 57.728 725.953 58.4C725.953 59.072 726.07 59.6907 726.305 60.256C726.55 60.8107 726.886 61.3013 727.313 61.728C727.74 62.144 728.241 62.4693 728.817 62.704C729.393 62.928 730.017 63.04 730.689 63.04C731.329 63.04 731.926 62.9333 732.481 62.72C733.036 62.5067 733.542 62.1653 734.001 61.696L734.753 62.448C734.262 62.992 733.66 63.4027 732.945 63.68C732.23 63.9573 731.462 64.096 730.641 64.096ZM742.176 64V62.144L742.128 61.84V58.736C742.128 58.0213 741.925 57.472 741.52 57.088C741.125 56.704 740.533 56.512 739.744 56.512C739.2 56.512 738.683 56.6027 738.192 56.784C737.701 56.9653 737.285 57.2053 736.944 57.504L736.432 56.656C736.859 56.2933 737.371 56.016 737.968 55.824C738.565 55.6213 739.195 55.52 739.856 55.52C740.944 55.52 741.781 55.792 742.368 56.336C742.965 56.8693 743.264 57.6853 743.264 58.784V64H742.176ZM739.28 64.08C738.651 64.08 738.101 63.9787 737.632 63.776C737.173 63.5627 736.821 63.2747 736.576 62.912C736.331 62.5387 736.208 62.112 736.208 61.632C736.208 61.1947 736.309 60.8 736.512 60.448C736.725 60.0853 737.067 59.7973 737.536 59.584C738.016 59.36 738.656 59.248 739.456 59.248H742.352V60.096H739.488C738.677 60.096 738.112 60.24 737.792 60.528C737.483 60.816 737.328 61.1733 737.328 61.6C737.328 62.08 737.515 62.464 737.888 62.752C738.261 63.04 738.784 63.184 739.456 63.184C740.096 63.184 740.645 63.04 741.104 62.752C741.573 62.4533 741.915 62.0267 742.128 61.472L742.384 62.256C742.171 62.8107 741.797 63.2533 741.264 63.584C740.741 63.9147 740.08 64.08 739.28 64.08ZM746.35 64V55.6H747.438V57.888L747.326 57.488C747.56 56.848 747.955 56.3627 748.51 56.032C749.064 55.6907 749.752 55.52 750.574 55.52V56.624C750.531 56.624 750.488 56.624 750.446 56.624C750.403 56.6133 750.36 56.608 750.318 56.608C749.432 56.608 748.739 56.88 748.238 57.424C747.736 57.9573 747.486 58.72 747.486 59.712V64H746.35ZM755.662 64.08C754.873 64.08 754.265 63.8667 753.838 63.44C753.411 63.0133 753.198 62.4107 753.198 61.632V53.744H754.334V61.568C754.334 62.0587 754.457 62.4373 754.702 62.704C754.958 62.9707 755.321 63.104 755.79 63.104C756.291 63.104 756.707 62.96 757.038 62.672L757.438 63.488C757.214 63.6907 756.942 63.84 756.622 63.936C756.313 64.032 755.993 64.08 755.662 64.08ZM751.694 56.544V55.6H756.894V56.544H751.694ZM764.77 64V62.144L764.722 61.84V58.736C764.722 58.0213 764.519 57.472 764.114 57.088C763.719 56.704 763.127 56.512 762.338 56.512C761.794 56.512 761.277 56.6027 760.786 56.784C760.295 56.9653 759.879 57.2053 759.538 57.504L759.026 56.656C759.453 56.2933 759.965 56.016 760.562 55.824C761.159 55.6213 761.789 55.52 762.45 55.52C763.538 55.52 764.375 55.792 764.962 56.336C765.559 56.8693 765.858 57.6853 765.858 58.784V64H764.77ZM761.874 64.08C761.245 64.08 760.695 63.9787 760.226 63.776C759.767 63.5627 759.415 63.2747 759.17 62.912C758.925 62.5387 758.802 62.112 758.802 61.632C758.802 61.1947 758.903 60.8 759.106 60.448C759.319 60.0853 759.661 59.7973 760.13 59.584C760.61 59.36 761.25 59.248 762.05 59.248H764.946V60.096H762.082C761.271 60.096 760.706 60.24 760.386 60.528C760.077 60.816 759.922 61.1733 759.922 61.6C759.922 62.08 760.109 62.464 760.482 62.752C760.855 63.04 761.378 63.184 762.05 63.184C762.69 63.184 763.239 63.04 763.698 62.752C764.167 62.4533 764.509 62.0267 764.722 61.472L764.978 62.256C764.765 62.8107 764.391 63.2533 763.858 63.584C763.335 63.9147 762.674 64.08 761.874 64.08ZM776.475 64.08C775.675 64.08 774.955 63.8987 774.315 63.536C773.686 63.1733 773.19 62.672 772.827 62.032C772.464 61.3813 772.283 60.6347 772.283 59.792C772.283 58.9387 772.464 58.192 772.827 57.552C773.19 56.912 773.686 56.416 774.315 56.064C774.955 55.7013 775.675 55.52 776.475 55.52C777.211 55.52 777.867 55.6853 778.443 56.016C779.03 56.3467 779.494 56.832 779.835 57.472C780.187 58.1013 780.363 58.8747 780.363 59.792C780.363 60.6987 780.192 61.472 779.851 62.112C779.51 62.752 779.046 63.2427 778.459 63.584C777.883 63.9147 777.222 64.08 776.475 64.08ZM776.555 63.072C777.152 63.072 777.686 62.9387 778.155 62.672C778.635 62.3947 779.008 62.0107 779.275 61.52C779.552 61.0187 779.691 60.4427 779.691 59.792C779.691 59.1307 779.552 58.5547 779.275 58.064C779.008 57.5733 778.635 57.1947 778.155 56.928C777.686 56.6507 777.152 56.512 776.555 56.512C775.968 56.512 775.44 56.6507 774.971 56.928C774.502 57.1947 774.128 57.5733 773.851 58.064C773.574 58.5547 773.435 59.1307 773.435 59.792C773.435 60.4427 773.574 61.0187 773.851 61.52C774.128 62.0107 774.502 62.3947 774.971 62.672C775.44 62.9387 775.968 63.072 776.555 63.072ZM779.723 64V61.472L779.835 59.776L779.675 58.08V52.128H780.811V64H779.723ZM787.543 64.08C786.668 64.08 785.9 63.8987 785.239 63.536C784.577 63.1627 784.06 62.656 783.687 62.016C783.313 61.3653 783.127 60.624 783.127 59.792C783.127 58.96 783.303 58.224 783.655 57.584C784.017 56.944 784.508 56.4427 785.127 56.08C785.756 55.7067 786.46 55.52 787.239 55.52C788.028 55.52 788.727 55.7013 789.335 56.064C789.953 56.416 790.439 56.9173 790.791 57.568C791.143 58.208 791.319 58.9493 791.319 59.792C791.319 59.8453 791.313 59.904 791.303 59.968C791.303 60.0213 791.303 60.08 791.303 60.144H783.991V59.296H790.695L790.247 59.632C790.247 59.024 790.113 58.4853 789.847 58.016C789.591 57.536 789.239 57.1627 788.791 56.896C788.343 56.6293 787.825 56.496 787.239 56.496C786.663 56.496 786.145 56.6293 785.687 56.896C785.228 57.1627 784.871 57.536 784.615 58.016C784.359 58.496 784.231 59.0453 784.231 59.664V59.84C784.231 60.48 784.369 61.0453 784.647 61.536C784.935 62.016 785.329 62.3947 785.831 62.672C786.343 62.9387 786.924 63.072 787.575 63.072C788.087 63.072 788.561 62.9813 788.999 62.8C789.447 62.6187 789.831 62.3413 790.151 61.968L790.791 62.704C790.417 63.152 789.948 63.4933 789.383 63.728C788.828 63.9627 788.215 64.08 787.543 64.08ZM697.001 79.096C696.158 79.096 695.379 78.9573 694.665 78.68C693.95 78.392 693.331 77.992 692.809 77.48C692.286 76.968 691.875 76.3653 691.577 75.672C691.289 74.9787 691.145 74.2213 691.145 73.4C691.145 72.5787 691.289 71.8213 691.577 71.128C691.875 70.4347 692.286 69.832 692.809 69.32C693.342 68.808 693.966 68.4133 694.681 68.136C695.395 67.848 696.174 67.704 697.017 67.704C697.827 67.704 698.59 67.8427 699.305 68.12C700.019 68.3867 700.622 68.792 701.113 69.336L700.361 70.088C699.902 69.6187 699.395 69.2827 698.841 69.08C698.286 68.8667 697.689 68.76 697.049 68.76C696.377 68.76 695.753 68.8773 695.177 69.112C694.601 69.336 694.099 69.6613 693.673 70.088C693.246 70.504 692.91 70.9947 692.664 71.56C692.43 72.1147 692.312 72.728 692.312 73.4C692.312 74.072 692.43 74.6907 692.664 75.256C692.91 75.8107 693.246 76.3013 693.673 76.728C694.099 77.144 694.601 77.4693 695.177 77.704C695.753 77.928 696.377 78.04 697.049 78.04C697.689 78.04 698.286 77.9333 698.841 77.72C699.395 77.5067 699.902 77.1653 700.361 76.696L701.113 77.448C700.622 77.992 700.019 78.4027 699.305 78.68C698.59 78.9573 697.822 79.096 697.001 79.096ZM706.446 79.08C705.635 79.08 704.904 78.8987 704.254 78.536C703.614 78.1627 703.107 77.656 702.734 77.016C702.36 76.3653 702.174 75.624 702.174 74.792C702.174 73.9493 702.36 73.208 702.734 72.568C703.107 71.928 703.614 71.4267 704.254 71.064C704.894 70.7013 705.624 70.52 706.446 70.52C707.278 70.52 708.014 70.7013 708.654 71.064C709.304 71.4267 709.811 71.928 710.174 72.568C710.547 73.208 710.734 73.9493 710.734 74.792C710.734 75.624 710.547 76.3653 710.174 77.016C709.811 77.656 709.304 78.1627 708.654 78.536C708.003 78.8987 707.267 79.08 706.446 79.08ZM706.446 78.072C707.054 78.072 707.592 77.9387 708.062 77.672C708.531 77.3947 708.899 77.0107 709.166 76.52C709.443 76.0187 709.582 75.4427 709.582 74.792C709.582 74.1307 709.443 73.5547 709.166 73.064C708.899 72.5733 708.531 72.1947 708.062 71.928C707.592 71.6507 707.059 71.512 706.462 71.512C705.864 71.512 705.331 71.6507 704.862 71.928C704.392 72.1947 704.019 72.5733 703.742 73.064C703.464 73.5547 703.326 74.1307 703.326 74.792C703.326 75.4427 703.464 76.0187 703.742 76.52C704.019 77.0107 704.392 77.3947 704.862 77.672C705.331 77.9387 705.859 78.072 706.446 78.072ZM717.341 70.52C718.023 70.52 718.621 70.6533 719.133 70.92C719.655 71.176 720.061 71.5707 720.349 72.104C720.647 72.6373 720.797 73.3093 720.797 74.12V79H719.661V74.232C719.661 73.3467 719.437 72.68 718.989 72.232C718.551 71.7733 717.933 71.544 717.133 71.544C716.535 71.544 716.013 71.6667 715.565 71.912C715.127 72.1467 714.786 72.4933 714.541 72.952C714.306 73.4 714.189 73.944 714.189 74.584V79H713.053V70.6H714.141V72.904L713.965 72.472C714.231 71.864 714.658 71.3893 715.245 71.048C715.831 70.696 716.53 70.52 717.341 70.52ZM724.057 79V69.544C724.057 68.7973 724.276 68.1947 724.713 67.736C725.151 67.2773 725.78 67.048 726.601 67.048C726.921 67.048 727.231 67.0907 727.529 67.176C727.828 67.2613 728.079 67.3947 728.281 67.576L727.897 68.424C727.737 68.2853 727.551 68.184 727.337 68.12C727.124 68.0453 726.895 68.008 726.649 68.008C726.169 68.008 725.801 68.1413 725.545 68.408C725.289 68.6747 725.161 69.0693 725.161 69.592V70.872L725.193 71.4V79H724.057ZM722.553 71.544V70.6H727.753V71.544H722.553ZM729.289 79V70.6H730.425V79H729.289ZM729.865 68.744C729.631 68.744 729.433 68.664 729.273 68.504C729.113 68.344 729.033 68.152 729.033 67.928C729.033 67.704 729.113 67.5173 729.273 67.368C729.433 67.208 729.631 67.128 729.865 67.128C730.1 67.128 730.297 67.2027 730.457 67.352C730.617 67.5013 730.697 67.688 730.697 67.912C730.697 68.1467 730.617 68.344 730.457 68.504C730.308 68.664 730.111 68.744 729.865 68.744ZM736.959 79.08C736.159 79.08 735.439 78.8987 734.799 78.536C734.17 78.1733 733.674 77.672 733.311 77.032C732.949 76.3813 732.767 75.6347 732.767 74.792C732.767 73.9387 732.949 73.192 733.311 72.552C733.674 71.912 734.17 71.416 734.799 71.064C735.439 70.7013 736.159 70.52 736.959 70.52C737.695 70.52 738.351 70.6853 738.927 71.016C739.514 71.3467 739.978 71.832 740.319 72.472C740.671 73.1013 740.847 73.8747 740.847 74.792C740.847 75.6987 740.677 76.472 740.335 77.112C739.994 77.752 739.53 78.2427 738.943 78.584C738.367 78.9147 737.706 79.08 736.959 79.08ZM737.039 78.072C737.637 78.072 738.17 77.9387 738.639 77.672C739.119 77.3947 739.493 77.0107 739.759 76.52C740.037 76.0187 740.175 75.4427 740.175 74.792C740.175 74.1307 740.037 73.5547 739.759 73.064C739.493 72.5733 739.119 72.1947 738.639 71.928C738.17 71.6507 737.637 71.512 737.039 71.512C736.453 71.512 735.925 71.6507 735.455 71.928C734.986 72.1947 734.613 72.5733 734.335 73.064C734.058 73.5547 733.919 74.1307 733.919 74.792C733.919 75.4427 734.058 76.0187 734.335 76.52C734.613 77.0107 734.986 77.3947 735.455 77.672C735.925 77.9387 736.453 78.072 737.039 78.072ZM740.207 79V76.472L740.319 74.776L740.159 73.08V67.128H741.295V79H740.207ZM748.027 79.08C747.152 79.08 746.384 78.8987 745.723 78.536C745.062 78.1627 744.544 77.656 744.171 77.016C743.798 76.3653 743.611 75.624 743.611 74.792C743.611 73.96 743.787 73.224 744.139 72.584C744.502 71.944 744.992 71.4427 745.611 71.08C746.24 70.7067 746.944 70.52 747.723 70.52C748.512 70.52 749.211 70.7013 749.819 71.064C750.438 71.416 750.923 71.9173 751.275 72.568C751.627 73.208 751.803 73.9493 751.803 74.792C751.803 74.8453 751.798 74.904 751.787 74.968C751.787 75.0213 751.787 75.08 751.787 75.144H744.475V74.296H751.179L750.731 74.632C750.731 74.024 750.598 73.4853 750.331 73.016C750.075 72.536 749.723 72.1627 749.275 71.896C748.827 71.6293 748.31 71.496 747.723 71.496C747.147 71.496 746.63 71.6293 746.171 71.896C745.712 72.1627 745.355 72.536 745.099 73.016C744.843 73.496 744.715 74.0453 744.715 74.664V74.84C744.715 75.48 744.854 76.0453 745.131 76.536C745.419 77.016 745.814 77.3947 746.315 77.672C746.827 77.9387 747.408 78.072 748.059 78.072C748.571 78.072 749.046 77.9813 749.483 77.8C749.931 77.6187 750.315 77.3413 750.635 76.968L751.275 77.704C750.902 78.152 750.432 78.4933 749.867 78.728C749.312 78.9627 748.699 79.08 748.027 79.08ZM758.403 70.52C759.086 70.52 759.683 70.6533 760.195 70.92C760.718 71.176 761.123 71.5707 761.411 72.104C761.71 72.6373 761.859 73.3093 761.859 74.12V79H760.723V74.232C760.723 73.3467 760.499 72.68 760.051 72.232C759.614 71.7733 758.995 71.544 758.195 71.544C757.598 71.544 757.075 71.6667 756.627 71.912C756.19 72.1467 755.849 72.4933 755.603 72.952C755.369 73.4 755.251 73.944 755.251 74.584V79H754.115V70.6H755.203V72.904L755.027 72.472C755.294 71.864 755.721 71.3893 756.307 71.048C756.894 70.696 757.593 70.52 758.403 70.52ZM768.416 79.08C767.584 79.08 766.837 78.8987 766.176 78.536C765.525 78.1627 765.013 77.656 764.64 77.016C764.266 76.3653 764.08 75.624 764.08 74.792C764.08 73.9493 764.266 73.208 764.64 72.568C765.013 71.928 765.525 71.4267 766.176 71.064C766.837 70.7013 767.584 70.52 768.416 70.52C769.13 70.52 769.776 70.6587 770.352 70.936C770.928 71.2133 771.381 71.6293 771.712 72.184L770.864 72.76C770.576 72.3333 770.218 72.0187 769.792 71.816C769.365 71.6133 768.901 71.512 768.4 71.512C767.802 71.512 767.264 71.6507 766.784 71.928C766.304 72.1947 765.925 72.5733 765.648 73.064C765.37 73.5547 765.232 74.1307 765.232 74.792C765.232 75.4533 765.37 76.0293 765.648 76.52C765.925 77.0107 766.304 77.3947 766.784 77.672C767.264 77.9387 767.802 78.072 768.4 78.072C768.901 78.072 769.365 77.9707 769.792 77.768C770.218 77.5653 770.576 77.256 770.864 76.84L771.712 77.416C771.381 77.96 770.928 78.376 770.352 78.664C769.776 78.9413 769.13 79.08 768.416 79.08ZM773.818 79V70.6H774.954V79H773.818ZM774.394 68.744C774.16 68.744 773.962 68.664 773.802 68.504C773.642 68.344 773.562 68.152 773.562 67.928C773.562 67.704 773.642 67.5173 773.802 67.368C773.962 67.208 774.16 67.128 774.394 67.128C774.629 67.128 774.826 67.2027 774.986 67.352C775.146 67.5013 775.226 67.688 775.226 67.912C775.226 68.1467 775.146 68.344 774.986 68.504C774.837 68.664 774.64 68.744 774.394 68.744ZM783.379 79V77.144L783.331 76.84V73.736C783.331 73.0213 783.129 72.472 782.723 72.088C782.329 71.704 781.737 71.512 780.947 71.512C780.403 71.512 779.886 71.6027 779.395 71.784C778.905 71.9653 778.489 72.2053 778.147 72.504L777.635 71.656C778.062 71.2933 778.574 71.016 779.171 70.824C779.769 70.6213 780.398 70.52 781.059 70.52C782.147 70.52 782.985 70.792 783.571 71.336C784.169 71.8693 784.467 72.6853 784.467 73.784V79H783.379ZM780.483 79.08C779.854 79.08 779.305 78.9787 778.835 78.776C778.377 78.5627 778.025 78.2747 777.779 77.912C777.534 77.5387 777.411 77.112 777.411 76.632C777.411 76.1947 777.513 75.8 777.715 75.448C777.929 75.0853 778.27 74.7973 778.739 74.584C779.219 74.36 779.859 74.248 780.659 74.248H783.555V75.096H780.691C779.881 75.096 779.315 75.24 778.995 75.528C778.686 75.816 778.531 76.1733 778.531 76.6C778.531 77.08 778.718 77.464 779.091 77.752C779.465 78.04 779.987 78.184 780.659 78.184C781.299 78.184 781.849 78.04 782.307 77.752C782.777 77.4533 783.118 77.0267 783.331 76.472L783.587 77.256C783.374 77.8107 783.001 78.2533 782.467 78.584C781.945 78.9147 781.283 79.08 780.483 79.08ZM787.553 79V67.128H788.689V79H787.553ZM791.85 79V70.6H792.986V79H791.85ZM792.426 68.744C792.191 68.744 791.994 68.664 791.834 68.504C791.674 68.344 791.594 68.152 791.594 67.928C791.594 67.704 791.674 67.5173 791.834 67.368C791.994 67.208 792.191 67.128 792.426 67.128C792.66 67.128 792.858 67.2027 793.018 67.352C793.178 67.5013 793.258 67.688 793.258 67.912C793.258 68.1467 793.178 68.344 793.018 68.504C792.868 68.664 792.671 68.744 792.426 68.744ZM799.491 79.08C798.691 79.08 797.971 78.8987 797.331 78.536C796.701 78.1733 796.205 77.672 795.843 77.032C795.48 76.3813 795.299 75.6347 795.299 74.792C795.299 73.9387 795.48 73.192 795.843 72.552C796.205 71.912 796.701 71.416 797.331 71.064C797.971 70.7013 798.691 70.52 799.491 70.52C800.227 70.52 800.883 70.6853 801.459 71.016C802.045 71.3467 802.509 71.832 802.851 72.472C803.203 73.1013 803.378 73.8747 803.378 74.792C803.378 75.6987 803.208 76.472 802.867 77.112C802.525 77.752 802.061 78.2427 801.475 78.584C800.899 78.9147 800.237 79.08 799.491 79.08ZM799.571 78.072C800.168 78.072 800.701 77.9387 801.171 77.672C801.651 77.3947 802.024 77.0107 802.291 76.52C802.568 76.0187 802.707 75.4427 802.707 74.792C802.707 74.1307 802.568 73.5547 802.291 73.064C802.024 72.5733 801.651 72.1947 801.171 71.928C800.701 71.6507 800.168 71.512 799.571 71.512C798.984 71.512 798.456 71.6507 797.987 71.928C797.517 72.1947 797.144 72.5733 796.867 73.064C796.589 73.5547 796.451 74.1307 796.451 74.792C796.451 75.4427 796.589 76.0187 796.867 76.52C797.144 77.0107 797.517 77.3947 797.987 77.672C798.456 77.9387 798.984 78.072 799.571 78.072ZM802.739 79V76.472L802.851 74.776L802.691 73.08V67.128H803.827V79H802.739ZM812.254 79V77.144L812.206 76.84V73.736C812.206 73.0213 812.004 72.472 811.598 72.088C811.204 71.704 810.612 71.512 809.822 71.512C809.278 71.512 808.761 71.6027 808.27 71.784C807.78 71.9653 807.364 72.2053 807.022 72.504L806.51 71.656C806.937 71.2933 807.449 71.016 808.046 70.824C808.644 70.6213 809.273 70.52 809.934 70.52C811.022 70.52 811.86 70.792 812.446 71.336C813.044 71.8693 813.342 72.6853 813.342 73.784V79H812.254ZM809.358 79.08C808.729 79.08 808.18 78.9787 807.71 78.776C807.252 78.5627 806.9 78.2747 806.654 77.912C806.409 77.5387 806.286 77.112 806.286 76.632C806.286 76.1947 806.388 75.8 806.59 75.448C806.804 75.0853 807.145 74.7973 807.614 74.584C808.094 74.36 808.734 74.248 809.534 74.248H812.43V75.096H809.566C808.756 75.096 808.19 75.24 807.87 75.528C807.561 75.816 807.406 76.1733 807.406 76.6C807.406 77.08 807.593 77.464 807.966 77.752C808.34 78.04 808.862 78.184 809.534 78.184C810.174 78.184 810.724 78.04 811.182 77.752C811.652 77.4533 811.993 77.0267 812.206 76.472L812.462 77.256C812.249 77.8107 811.876 78.2533 811.342 78.584C810.82 78.9147 810.158 79.08 809.358 79.08ZM819.772 79.08C818.972 79.08 818.252 78.8987 817.612 78.536C816.982 78.1733 816.486 77.672 816.124 77.032C815.761 76.3813 815.58 75.6347 815.58 74.792C815.58 73.9387 815.761 73.192 816.124 72.552C816.486 71.912 816.982 71.416 817.612 71.064C818.252 70.7013 818.972 70.52 819.772 70.52C820.508 70.52 821.164 70.6853 821.74 71.016C822.326 71.3467 822.79 71.832 823.132 72.472C823.484 73.1013 823.66 73.8747 823.66 74.792C823.66 75.6987 823.489 76.472 823.148 77.112C822.806 77.752 822.342 78.2427 821.756 78.584C821.18 78.9147 820.518 79.08 819.772 79.08ZM819.852 78.072C820.449 78.072 820.982 77.9387 821.452 77.672C821.932 77.3947 822.305 77.0107 822.572 76.52C822.849 76.0187 822.988 75.4427 822.988 74.792C822.988 74.1307 822.849 73.5547 822.572 73.064C822.305 72.5733 821.932 72.1947 821.452 71.928C820.982 71.6507 820.449 71.512 819.852 71.512C819.265 71.512 818.737 71.6507 818.268 71.928C817.798 72.1947 817.425 72.5733 817.148 73.064C816.87 73.5547 816.732 74.1307 816.732 74.792C816.732 75.4427 816.87 76.0187 817.148 76.52C817.425 77.0107 817.798 77.3947 818.268 77.672C818.737 77.9387 819.265 78.072 819.852 78.072ZM823.02 79V76.472L823.132 74.776L822.972 73.08V67.128H824.108V79H823.02Z" fill="#727272"/>
</svg>
